<svg width="499" height="80" viewBox="0 0 499 80" fill="none" xmlns="http://www.w3.org/2000/svg">
<path d="M40.443 3.77632V21.8806L58.8356 40.874V3.66479L40.443 3.77632ZM40.443 30.4331V50.0925C40.0125 53.3136 38.2917 55.5354 37.2157 56.6463C36.1404 57.7565 33.8816 59.6449 30.4394 59.9783C30.2245 59.9783 30.0095 59.9783 29.7946 59.9783C29.579 59.9783 29.3641 59.9783 29.1491 59.9783C28.9336 59.9783 28.7186 59.9783 28.5037 59.9783C28.2887 59.9783 28.0732 59.9783 27.8582 59.9783C27.5358 59.9783 27.2128 59.9783 26.8903 59.9783C26.0299 59.7558 25.277 59.534 24.5241 59.2007C24.416 59.2007 24.3085 59.2007 24.2011 59.2007C23.2332 58.7565 22.4803 58.2007 21.8348 57.6456C21.7273 57.5347 21.6199 57.4232 21.5124 57.3123C21.2968 57.0899 21.0819 56.8681 20.8669 56.6463C20.2215 55.9796 19.3611 54.8687 18.7156 53.3136C18.2851 52.4252 17.9627 51.3143 17.7478 50.0925H0C0.752925 64.1987 10.9714 75.639 24.2011 77.8608C24.416 77.8608 24.6316 77.8608 24.8465 77.8608C25.5994 77.9717 26.3524 78.0832 27.1053 78.0832C27.7507 78.0832 28.3962 78.0832 29.0416 78.0832C29.2566 78.0832 29.4715 78.0832 29.6865 78.0832C30.117 78.0832 30.5475 78.0832 30.9774 78.0832C31.4079 78.0832 31.8378 78.0832 32.2683 78.0832C32.9137 77.9717 33.4511 77.8607 33.9891 77.7498C47.5417 75.4172 57.8677 63.4212 58.1902 48.8713L40.443 30.4331Z" fill="url(#paint0_linear)"/>
<path d="M84.5994 78.4158H106.004L126.871 42.9842L116.222 24.7684L84.5994 78.4158ZM130.313 0.776978L119.664 18.8819L150.104 70.9743L154.514 78.5267H175.919L130.313 0.776978Z" fill="url(#paint1_linear)"/>
<path d="M211.363 78.4164H229.648V53.425L211.363 34.5432V78.4164ZM261.594 18.4376L261.163 18.8818V50.6482L214.697 2.66599L214.267 2.22114H211.363V25.9907L229.648 44.8726L241.372 56.9795L261.486 77.7498L262.239 78.5273H279.449V0L261.594 18.4376Z" fill="url(#paint2_linear)"/>
<path d="M370.502 2.11029V40.3188C370.502 45.4284 368.566 50.2046 365.016 53.87C364.048 54.8693 362.973 55.7578 361.79 56.5353L360.284 57.5353L373.513 71.1967L374.589 70.4191C378.892 66.9762 382.441 62.4224 384.915 57.3129C387.497 51.9815 388.788 46.2059 388.788 40.2079V1.99939L370.502 2.11029ZM353.077 59.3122C352.647 59.3122 352.217 59.3122 351.787 59.3122C346.839 59.3122 342.214 57.3129 338.664 53.6475C335.114 49.9822 333.179 45.206 333.179 40.097V37.9868L314.785 18.9934V39.9855C314.785 52.5367 320.809 64.3102 330.812 71.4191C336.943 75.7505 344.149 78.0832 351.679 78.0832C356.734 78.0832 361.575 77.0838 366.2 75.0845L368.243 74.196L353.615 59.0898L353.077 59.3122ZM333.071 1.77759H314.678V10.3301L333.071 29.3228V1.77759Z" fill="url(#paint3_linear)"/>
<path d="M451.014 2.11084L469.3 20.9927H498.126V2.11084H451.014ZM497.16 47.8719L496.834 47.0943C496.834 46.9834 496.834 46.8725 496.834 46.761L496.514 45.7616L496.405 45.5392C496.188 45.095 495.976 44.6508 495.759 44.2065L495.65 44.0956C495.33 43.429 495.004 42.7623 494.684 42.0963L494.575 41.8739C494.467 41.763 494.358 41.6514 494.256 41.5405C494.147 41.4296 494.038 41.3181 493.929 41.2072C493.821 40.9854 493.718 40.763 493.609 40.5412L493.501 40.4297C493.392 40.3188 493.283 40.2079 493.181 40.0963C493.181 39.9854 493.181 39.8745 493.181 39.7636L492.963 39.5412C492.855 39.4303 492.746 39.3188 492.64 39.2079C492.317 38.8746 491.994 38.5412 491.672 38.2085C491.564 38.097 491.456 37.9861 491.349 37.8752C491.241 37.7637 491.134 37.7637 491.026 37.7637L490.811 37.5419C490.703 37.4304 490.596 37.3194 490.488 37.2085C490.274 36.9861 490.059 36.8752 489.95 36.7643C489.521 36.431 489.09 36.0977 488.66 35.7643L488.552 35.6534C488.337 35.5425 488.122 35.431 487.907 35.3201C487.692 35.2092 487.477 35.0977 487.262 34.9868L486.724 34.6535C486.401 34.4317 486.078 34.2092 485.756 33.9874C485.54 33.8759 485.325 33.765 485.11 33.6541C485.003 33.6541 484.895 33.6541 484.787 33.6541C484.465 33.5432 484.143 33.4317 483.82 33.3208H483.712C483.497 33.2099 483.282 33.0984 483.067 32.9875H482.959C482.529 32.8766 482.099 32.7657 481.668 32.6548H481.561C481.345 32.5432 481.13 32.4323 480.915 32.3214C480.808 32.3214 480.7 32.3214 480.593 32.3214L480.377 32.2099H480.27C480.054 32.099 479.839 31.9881 479.624 31.9881H479.517C479.301 31.9881 479.087 31.9881 478.872 31.9881H478.549C478.334 31.9881 478.119 31.9881 477.904 31.9881H477.796C477.688 31.9881 477.581 31.9881 477.473 31.9881C477.258 31.9881 477.043 31.9881 476.828 31.9881C476.72 31.9881 476.613 31.9881 476.505 31.9881H476.397C476.29 31.9881 476.182 31.9881 476.075 31.9881C475.86 31.9881 475.644 31.9881 475.429 31.9881H475.214C475.106 31.9881 474.999 31.9881 474.891 31.9881H474.784C474.676 31.9881 474.568 31.9881 474.461 31.9881H446.603C444.021 31.9881 441.87 29.7663 441.87 27.101C441.87 24.435 444.021 22.2139 446.603 22.2139H460.263L442.301 3.6647L441.548 3.88713C441.01 3.99803 440.472 4.10893 439.934 4.33135C436.277 5.44223 432.943 7.55247 430.254 10.3294C427.565 13.1056 425.521 16.5492 424.445 20.3254C423.8 22.5472 423.478 24.8792 423.478 27.2119C423.478 29.5445 423.8 31.8766 424.445 34.0983C425.521 37.8746 427.565 41.3181 430.254 44.095C432.943 46.8713 436.277 48.9821 439.934 50.0924C442.085 50.759 444.344 51.0924 446.603 51.0924H474.461C477.043 51.0924 479.194 53.3135 479.194 55.9795C479.194 58.6449 477.043 60.8666 474.461 60.8666H423.585V79.7485H474.461C479.516 79.7485 484.357 78.0825 488.337 74.9729C492.209 71.9736 495.113 67.6416 496.514 62.866C497.154 60.6442 497.48 58.3115 497.48 55.9795C497.48 53.6468 497.154 51.3142 496.514 49.093L497.16 47.8719Z" fill="url(#paint4_linear)"/>
<defs>
<linearGradient id="paint0_linear" x1="5.19598" y1="17.148" x2="84.1523" y2="62.9477" gradientUnits="userSpaceOnUse">
<stop stop-color="#742D75"/>
<stop offset="0.3125" stop-color="#421942"/>
<stop offset="0.984375" stop-color="#260726"/>
</linearGradient>
<linearGradient id="paint1_linear" x1="92.6641" y1="14.8638" x2="186.652" y2="95.8574" gradientUnits="userSpaceOnUse">
<stop stop-color="#742D75"/>
<stop offset="0.3125" stop-color="#421942"/>
<stop offset="0.984375" stop-color="#260726"/>
</linearGradient>
<linearGradient id="paint2_linear" x1="217.376" y1="14.2277" x2="304.31" y2="69.5295" gradientUnits="userSpaceOnUse">
<stop stop-color="#742D75"/>
<stop offset="0.3125" stop-color="#421942"/>
<stop offset="0.984375" stop-color="#260726"/>
</linearGradient>
<linearGradient id="paint3_linear" x1="321.223" y1="15.6027" x2="409.378" y2="78.4203" gradientUnits="userSpaceOnUse">
<stop stop-color="#742D75"/>
<stop offset="0.3125" stop-color="#421942"/>
<stop offset="0.984375" stop-color="#260726"/>
</linearGradient>
<linearGradient id="paint4_linear" x1="430.07" y1="16.1773" x2="519.465" y2="79.241" gradientUnits="userSpaceOnUse">
<stop stop-color="#742D75"/>
<stop offset="0.3125" stop-color="#421942"/>
<stop offset="0.984375" stop-color="#260726"/>
</linearGradient>
</defs>
</svg>
