<svg width="705" height="360" viewBox="0 0 705 360" fill="none" xmlns="http://www.w3.org/2000/svg">
<g clip-path="url(#clip0)">
<path d="M219.24 202.937L199 213.061V116.897H219.24V202.937Z" fill="#FF9900"/>
<path d="M274.899 172.57H227.215L237.334 152.326H274.899V121.957L295.14 111.835V207.999H274.899V172.57Z" fill="#FF9900"/>
<path d="M431.761 116.897V187.753H497.541L487.42 207.999H411.52V116.897H431.761Z" fill="#FF9900"/>
<path d="M648.448 170.291L629.099 150.2V202.937L608.86 213.061V116.897H629.099L657.999 146.907L648.448 170.291Z" fill="#FF9900"/>
<path d="M705 207.999H684.76L655.781 177.906L665.326 154.515L684.76 174.696V121.957L705 111.835V207.999Z" fill="#FF9900"/>
<path d="M219.24 202.937L199 213.061V116.897H219.24V202.937Z" fill="#FF9900"/>
<path d="M375.345 117.761C372.899 117.196 370.354 116.897 367.737 116.897H338.018C319.439 116.897 304.356 131.984 304.356 150.568V174.328C304.356 192.912 319.439 207.999 338.018 207.999H367.737C386.316 207.999 401.401 192.912 401.401 174.328V150.568C401.401 138.813 395.364 128.458 386.228 122.434L374.412 136.109C380.539 140.021 384.604 146.879 384.604 154.679V170.215C384.604 182.367 374.74 192.231 362.593 192.231H343.161C331.014 192.231 321.152 182.367 321.152 170.215V154.679C321.152 142.529 331.014 132.665 343.161 132.665H362.469L375.345 117.761Z" fill="#FF9900"/>
<path d="M573.588 117.761C571.145 117.196 568.597 116.897 565.98 116.897H536.263C517.684 116.897 502.599 131.984 502.599 150.568V174.328C502.599 192.912 517.684 207.999 536.263 207.999H565.98C584.559 207.999 599.644 192.912 599.644 174.328V150.568C599.644 138.813 593.61 128.458 584.473 122.434L572.658 136.109C578.782 140.021 582.848 146.879 582.848 154.679V170.215C582.848 182.367 572.986 192.231 560.837 192.231H541.407C529.258 192.231 519.396 182.367 519.396 170.215V154.679C519.396 142.529 529.258 132.665 541.407 132.665H560.713L573.588 117.761Z" fill="#FF9900"/>
<g filter="url(#filter0_d)">
<path d="M215.979 233.37C215.979 236.829 215 239.438 213.042 241.196C211.085 242.935 208.352 243.804 204.844 243.804H199V223.337H205.454C207.586 223.337 209.437 223.719 211.007 224.484C212.597 225.248 213.818 226.376 214.671 227.866C215.543 229.338 215.979 231.172 215.979 233.37ZM212.083 233.485C212.083 231.039 211.511 229.242 210.368 228.096C209.244 226.949 207.606 226.376 205.454 226.376H202.721V240.737H204.96C209.709 240.737 212.083 238.32 212.083 233.485Z" fill="#3E4345"/>
<path d="M225.715 227.981C227.828 227.981 229.495 228.602 230.716 229.844C231.956 231.086 232.577 232.816 232.577 235.033V236.867H222.168C222.207 238.281 222.604 239.38 223.36 240.164C224.116 240.928 225.163 241.31 226.5 241.31C227.508 241.31 228.419 241.215 229.233 241.024C230.047 240.814 230.881 240.517 231.733 240.135V243.03C230.958 243.393 230.154 243.661 229.32 243.833C228.487 244.005 227.489 244.091 226.326 244.091C224.795 244.091 223.428 243.804 222.226 243.231C221.044 242.639 220.114 241.75 219.435 240.565C218.776 239.38 218.447 237.909 218.447 236.151C218.447 233.494 219.116 231.469 220.453 230.074C221.79 228.679 223.544 227.981 225.715 227.981ZM225.715 230.647C224.727 230.647 223.922 230.962 223.302 231.593C222.701 232.204 222.352 233.122 222.256 234.345H229.03C229.01 233.275 228.729 232.395 228.187 231.707C227.663 231 226.839 230.647 225.715 230.647Z" fill="#3E4345"/>
<path d="M241.956 244.091C239.688 244.091 237.905 243.451 236.607 242.17C235.308 240.89 234.659 238.874 234.659 236.122C234.659 234.211 234.979 232.663 235.618 231.478C236.277 230.274 237.178 229.395 238.322 228.841C239.466 228.268 240.774 227.981 242.247 227.981C243.235 227.981 244.117 228.077 244.893 228.268C245.668 228.459 246.327 228.688 246.87 228.956L245.794 231.793C245.193 231.564 244.592 231.373 243.991 231.22C243.39 231.048 242.809 230.962 242.247 230.962C239.688 230.962 238.409 232.673 238.409 236.093C238.409 237.756 238.729 239.008 239.369 239.849C240.028 240.689 240.968 241.11 242.189 241.11C243.061 241.11 243.836 241.005 244.515 240.794C245.193 240.584 245.842 240.298 246.463 239.934V243.059C245.862 243.403 245.212 243.661 244.515 243.833C243.836 244.005 242.983 244.091 241.956 244.091Z" fill="#3E4345"/>
<path d="M255.811 227.981C257.923 227.981 259.59 228.602 260.811 229.844C262.052 231.086 262.672 232.816 262.672 235.033V236.867H252.264C252.303 238.281 252.7 239.38 253.456 240.164C254.212 240.928 255.258 241.31 256.596 241.31C257.604 241.31 258.515 241.215 259.329 241.024C260.143 240.814 260.976 240.517 261.829 240.135V243.03C261.054 243.393 260.249 243.661 259.416 243.833C258.582 244.005 257.584 244.091 256.421 244.091C254.89 244.091 253.524 243.804 252.322 243.231C251.14 242.639 250.209 241.75 249.531 240.565C248.872 239.38 248.542 237.909 248.542 236.151C248.542 233.494 249.211 231.469 250.549 230.074C251.886 228.679 253.64 227.981 255.811 227.981ZM255.811 230.647C254.822 230.647 254.018 230.962 253.398 231.593C252.797 232.204 252.448 233.122 252.351 234.345H259.125C259.106 233.275 258.825 232.395 258.282 231.707C257.759 231 256.935 230.647 255.811 230.647Z" fill="#3E4345"/>
<path d="M274.116 227.981C275.88 227.981 277.256 228.43 278.244 229.328C279.252 230.226 279.756 231.679 279.756 233.685V243.804H276.093V234.402C276.093 232.071 275.124 230.905 273.186 230.905C271.713 230.905 270.705 231.364 270.162 232.281C269.619 233.198 269.348 234.507 269.348 236.208V243.804H265.685V228.268H268.505L269.028 230.303H269.232C269.736 229.5 270.424 228.917 271.296 228.554C272.187 228.172 273.127 227.981 274.116 227.981Z" fill="#3E4345"/>
<path d="M289.762 241.196C290.208 241.196 290.644 241.158 291.07 241.081C291.516 240.986 291.923 240.88 292.292 240.766V243.46C291.904 243.632 291.4 243.776 290.78 243.89C290.16 244.024 289.51 244.091 288.832 244.091C287.94 244.091 287.126 243.948 286.39 243.661C285.653 243.355 285.072 242.839 284.645 242.113C284.219 241.387 284.006 240.374 284.006 239.075V230.991H281.883V229.414L284.209 228.153L285.372 224.856H287.669V228.268H292.146V230.991H287.669V239.046C287.669 239.772 287.863 240.317 288.25 240.68C288.638 241.024 289.142 241.196 289.762 241.196Z" fill="#3E4345"/>
<path d="M303.043 227.981C303.295 227.981 303.567 227.991 303.857 228.01C304.167 228.029 304.429 228.067 304.642 228.124L304.322 231.478C304.129 231.44 303.896 231.411 303.625 231.392C303.353 231.354 303.111 231.335 302.898 231.335C302.123 231.335 301.396 231.497 300.717 231.822C300.039 232.128 299.487 232.615 299.06 233.284C298.653 233.934 298.45 234.756 298.45 235.749V243.804H294.786V228.268H297.607L298.13 230.962H298.304C298.769 230.14 299.409 229.443 300.223 228.87C301.037 228.277 301.977 227.981 303.043 227.981Z" fill="#3E4345"/>
<path d="M312.593 227.981C314.629 227.981 316.169 228.421 317.216 229.3C318.282 230.179 318.815 231.536 318.815 233.37V243.804H316.228L315.501 241.654H315.384C314.706 242.495 313.989 243.116 313.233 243.518C312.477 243.9 311.45 244.091 310.151 244.091C308.736 244.091 307.564 243.699 306.633 242.916C305.703 242.132 305.238 240.919 305.238 239.275C305.238 237.67 305.829 236.466 307.011 235.663C308.213 234.861 310.025 234.412 312.448 234.316L315.181 234.23V233.456C315.181 232.481 314.939 231.784 314.454 231.364C313.97 230.924 313.291 230.704 312.419 230.704C311.624 230.704 310.859 230.819 310.122 231.048C309.405 231.278 308.688 231.545 307.971 231.851L306.808 229.328C307.583 228.927 308.465 228.602 309.454 228.354C310.461 228.105 311.508 227.981 312.593 227.981ZM315.181 236.466L313.262 236.523C311.653 236.581 310.539 236.858 309.919 237.355C309.298 237.832 308.988 238.482 308.988 239.304C308.988 240.049 309.202 240.584 309.628 240.909C310.074 241.215 310.655 241.368 311.372 241.368C312.438 241.368 313.34 241.072 314.076 240.479C314.813 239.868 315.181 238.969 315.181 237.785V236.466Z" fill="#3E4345"/>
<path d="M326.387 243.804H322.724V222.019H326.387V243.804Z" fill="#3E4345"/>
<path d="M332.222 222.277C332.784 222.277 333.259 222.42 333.646 222.707C334.053 222.974 334.257 223.461 334.257 224.168C334.257 224.876 334.053 225.372 333.646 225.659C333.259 225.946 332.784 226.089 332.222 226.089C331.66 226.089 331.175 225.946 330.768 225.659C330.38 225.372 330.186 224.876 330.186 224.168C330.186 223.461 330.38 222.974 330.768 222.707C331.175 222.42 331.66 222.277 332.222 222.277ZM334.053 228.268V243.804H330.39V228.268H334.053Z" fill="#3E4345"/>
<path d="M348.726 243.804H336.631V241.597L344.365 231.02H337.067V228.268H348.493V230.704L340.905 241.024H348.726V243.804Z" fill="#3E4345"/>
<path d="M357.71 227.981C359.822 227.981 361.489 228.602 362.71 229.844C363.951 231.086 364.571 232.816 364.571 235.033V236.867H354.163C354.201 238.281 354.599 239.38 355.355 240.164C356.111 240.928 357.157 241.31 358.495 241.31C359.503 241.31 360.413 241.215 361.228 241.024C362.042 240.814 362.875 240.517 363.728 240.135V243.03C362.953 243.393 362.148 243.661 361.315 243.833C360.481 244.005 359.483 244.091 358.32 244.091C356.789 244.091 355.423 243.804 354.221 243.231C353.039 242.639 352.108 241.75 351.43 240.565C350.771 239.38 350.441 237.909 350.441 236.151C350.441 233.494 351.11 231.469 352.447 230.074C353.785 228.679 355.539 227.981 357.71 227.981ZM357.71 230.647C356.721 230.647 355.917 230.962 355.297 231.593C354.696 232.204 354.347 233.122 354.25 234.345H361.024C361.005 233.275 360.724 232.395 360.181 231.707C359.658 231 358.834 230.647 357.71 230.647Z" fill="#3E4345"/>
<path d="M372.788 244.091C370.946 244.091 369.464 243.413 368.339 242.056C367.215 240.699 366.653 238.702 366.653 236.065C366.653 233.389 367.225 231.373 368.368 230.016C369.512 228.659 371.014 227.981 372.875 227.981C374.038 227.981 374.988 228.201 375.724 228.64C376.48 229.08 377.081 229.615 377.527 230.246H377.701C377.643 229.978 377.585 229.567 377.527 229.013C377.468 228.459 377.439 227.943 377.439 227.465V222.019H381.103V243.804H378.253L377.585 241.769H377.439C376.994 242.419 376.402 242.973 375.666 243.432C374.929 243.871 373.97 244.091 372.788 244.091ZM373.892 241.167C375.249 241.167 376.199 240.785 376.742 240.02C377.304 239.256 377.594 238.1 377.614 236.552V236.093C377.614 234.431 377.342 233.16 376.8 232.281C376.276 231.383 375.288 230.934 373.834 230.934C372.71 230.934 371.848 231.392 371.247 232.309C370.665 233.208 370.375 234.478 370.375 236.122C370.375 237.765 370.675 239.017 371.276 239.877C371.877 240.737 372.749 241.167 373.892 241.167Z" fill="#3E4345"/>
<path d="M399.357 243.804H390.635V241.712L393.135 240.794V226.376L390.635 225.43V223.337H399.357V225.43L396.857 226.376V240.794L399.357 241.712V243.804Z" fill="#3E4345"/>
<path d="M407.256 244.091C405.414 244.091 403.931 243.413 402.807 242.056C401.683 240.699 401.121 238.702 401.121 236.065C401.121 233.389 401.693 231.373 402.836 230.016C403.98 228.659 405.482 227.981 407.343 227.981C408.506 227.981 409.455 228.201 410.192 228.64C410.948 229.08 411.549 229.615 411.994 230.246H412.169C412.111 229.978 412.053 229.567 411.994 229.013C411.936 228.459 411.907 227.943 411.907 227.465V222.019H415.571V243.804H412.721L412.053 241.769H411.907C411.461 242.419 410.87 242.973 410.134 243.432C409.397 243.871 408.438 244.091 407.256 244.091ZM408.36 241.167C409.717 241.167 410.667 240.785 411.21 240.02C411.772 239.256 412.062 238.1 412.082 236.552V236.093C412.082 234.431 411.81 233.16 411.268 232.281C410.744 231.383 409.756 230.934 408.302 230.934C407.178 230.934 406.315 231.392 405.715 232.309C405.133 233.208 404.842 234.478 404.842 236.122C404.842 237.765 405.143 239.017 405.744 239.877C406.345 240.737 407.217 241.167 408.36 241.167Z" fill="#3E4345"/>
<path d="M425.907 227.981C428.02 227.981 429.687 228.602 430.908 229.844C432.148 231.086 432.769 232.816 432.769 235.033V236.867H422.36C422.399 238.281 422.796 239.38 423.552 240.164C424.308 240.928 425.355 241.31 426.692 241.31C427.7 241.31 428.611 241.215 429.425 241.024C430.239 240.814 431.073 240.517 431.925 240.135V243.03C431.15 243.393 430.346 243.661 429.512 243.833C428.679 244.005 427.681 244.091 426.518 244.091C424.987 244.091 423.62 243.804 422.418 243.231C421.236 242.639 420.306 241.75 419.627 240.565C418.968 239.38 418.639 237.909 418.639 236.151C418.639 233.494 419.308 231.469 420.645 230.074C421.982 228.679 423.736 227.981 425.907 227.981ZM425.907 230.647C424.919 230.647 424.114 230.962 423.494 231.593C422.893 232.204 422.544 233.122 422.448 234.345H429.222C429.202 233.275 428.921 232.395 428.378 231.707C427.855 231 427.031 230.647 425.907 230.647Z" fill="#3E4345"/>
<path d="M444.212 227.981C445.976 227.981 447.352 228.43 448.341 229.328C449.349 230.226 449.853 231.679 449.853 233.685V243.804H446.189V234.402C446.189 232.071 445.22 230.905 443.282 230.905C441.809 230.905 440.801 231.364 440.258 232.281C439.716 233.198 439.444 234.507 439.444 236.208V243.804H435.781V228.268H438.601L439.125 230.303H439.328C439.832 229.5 440.52 228.917 441.392 228.554C442.284 228.172 443.224 227.981 444.212 227.981Z" fill="#3E4345"/>
<path d="M459.859 241.196C460.304 241.196 460.741 241.158 461.167 241.081C461.613 240.986 462.02 240.88 462.388 240.766V243.46C462 243.632 461.496 243.776 460.876 243.89C460.256 244.024 459.607 244.091 458.928 244.091C458.037 244.091 457.223 243.948 456.486 243.661C455.75 243.355 455.168 242.839 454.742 242.113C454.315 241.387 454.102 240.374 454.102 239.075V230.991H451.98V229.414L454.306 228.153L455.469 224.856H457.765V228.268H462.243V230.991H457.765V239.046C457.765 239.772 457.959 240.317 458.347 240.68C458.734 241.024 459.238 241.196 459.859 241.196Z" fill="#3E4345"/>
<path d="M466.714 222.277C467.277 222.277 467.751 222.42 468.139 222.707C468.546 222.974 468.75 223.461 468.75 224.168C468.75 224.876 468.546 225.372 468.139 225.659C467.751 225.946 467.277 226.089 466.714 226.089C466.152 226.089 465.668 225.946 465.261 225.659C464.873 225.372 464.679 224.876 464.679 224.168C464.679 223.461 464.873 222.974 465.261 222.707C465.668 222.42 466.152 222.277 466.714 222.277ZM468.546 228.268V243.804H464.883V228.268H468.546Z" fill="#3E4345"/>
<path d="M478.654 241.196C479.1 241.196 479.536 241.158 479.962 241.081C480.408 240.986 480.815 240.88 481.184 240.766V243.46C480.796 243.632 480.292 243.776 479.672 243.89C479.051 244.024 478.402 244.091 477.724 244.091C476.832 244.091 476.018 243.948 475.282 243.661C474.545 243.355 473.964 242.839 473.537 242.113C473.111 241.387 472.898 240.374 472.898 239.075V230.991H470.775V229.414L473.101 228.153L474.264 224.856H476.561V228.268H481.038V230.991H476.561V239.046C476.561 239.772 476.755 240.317 477.142 240.68C477.53 241.024 478.034 241.196 478.654 241.196Z" fill="#3E4345"/>
<path d="M481.323 228.268H485.306L488.446 237.039C488.66 237.593 488.834 238.138 488.97 238.673C489.105 239.208 489.202 239.753 489.26 240.307H489.377C489.454 239.829 489.571 239.304 489.726 238.731C489.881 238.157 490.055 237.593 490.249 237.039L493.273 228.268H497.227L490.511 245.868C489.91 247.416 489.086 248.601 488.039 249.423C487.012 250.264 485.743 250.684 484.231 250.684C483.746 250.684 483.329 250.655 482.981 250.598C482.632 250.56 482.322 250.512 482.05 250.455V247.588C482.263 247.626 482.515 247.665 482.806 247.703C483.116 247.741 483.436 247.76 483.766 247.76C484.677 247.76 485.394 247.493 485.917 246.958C486.46 246.442 486.876 245.792 487.167 245.008L487.632 243.747L481.323 228.268Z" fill="#3E4345"/>
</g>
<path d="M19.9246 238.168L24.1444 216.17C25.8082 207.496 19.8172 198.983 10.7894 197.194C1.76153 195.404 -6.93667 201.005 -8.60049 209.678L-12.4104 229.54C-17.0016 253.474 -30.5873 274.634 -50.6656 289.121L-78.3488 309.096C-80.6747 310.774 -81.1094 313.983 -79.3202 316.263C-77.5316 318.543 -74.1958 319.031 -71.8692 317.353L-44.1859 297.378C-22.024 281.387 -7.02777 258.031 -1.95992 231.611L1.84999 211.75C2.45181 208.613 5.59791 206.587 8.86334 207.234C12.1288 207.882 14.2957 210.961 13.6939 214.098L9.47411 236.096C3.82408 265.55 -12.9467 291.522 -37.7497 309.229L-64.6887 328.46C-67.0231 330.126 -67.4749 333.333 -65.6972 335.622C-64.8639 336.695 -63.6889 337.375 -62.4349 337.623C-61.0136 337.905 -59.4917 337.632 -58.2516 336.747L-31.3133 317.515C-4.40212 298.304 13.7945 270.125 19.9246 238.168Z" fill="#FF9900"/>
<path d="M46.1979 220.557C50.1157 200.095 35.9848 180.008 14.6975 175.78C-6.5898 171.552 -27.0954 184.759 -31.0132 205.221L-34.8118 225.06C-38.3758 243.674 -48.9314 260.127 -64.5345 271.389L-84.1794 285.569C-86.5011 287.245 -86.9343 290.45 -85.1474 292.729C-83.3604 295.007 -80.0304 295.494 -77.7082 293.82L-58.0633 279.64C-40.3799 266.876 -28.4164 248.228 -24.3772 227.133L-20.5786 207.293C-17.7196 192.361 -2.75614 182.724 12.7779 185.809C28.3119 188.895 38.6236 203.553 35.7646 218.484L31.5574 240.458C24.903 275.213 5.13188 305.856 -24.1151 326.742L-46.8031 342.946C-49.134 344.609 -49.5842 347.813 -47.8089 350.1C-46.9766 351.172 -45.8034 351.851 -44.5513 352.1C-43.1323 352.382 -41.613 352.11 -40.3751 351.226L-17.6864 335.022C13.6635 312.634 34.8573 279.786 41.9906 242.53L46.1979 220.557Z" fill="#FF9900"/>
<path d="M68.2857 224.882C74.4401 192.67 52.1985 161.039 18.7052 154.371C-14.7881 147.704 -47.0434 168.486 -53.1978 200.698L-56.9826 220.508C-59.5236 233.808 -67.0578 245.562 -78.1972 253.606L-95.8451 266.35C-98.1615 268.022 -98.5928 271.223 -96.809 273.499C-95.0257 275.775 -91.701 276.262 -89.3849 274.59L-71.737 261.846C-58.522 252.304 -49.5842 238.359 -46.5698 222.581L-42.7849 202.771C-37.6855 176.081 -10.9598 158.861 16.7918 164.386C44.5435 169.911 62.9722 196.119 57.8728 222.809L53.6808 244.751C46.0327 284.781 23.2847 320.07 -10.3732 344.117L-16.6378 348.593C-18.9628 350.254 -19.4111 353.452 -17.6387 355.736C-16.8078 356.807 -15.6362 357.486 -14.3874 357.735C-12.9712 358.017 -11.4551 357.745 -10.2201 356.863L-3.95612 352.387C31.8007 326.84 55.9678 289.351 64.093 246.824L68.285 224.882L68.2857 224.882Z" fill="#FF9900"/>
<path d="M-73.74 195.169C-74.2663 197.93 -72.3673 200.631 -69.4988 201.203C-66.6303 201.776 -63.8782 200.003 -63.3519 197.242C-60.1435 180.411 -50.6943 165.42 -36.7441 155.029C-22.9238 144.734 -5.67794 139.64 11.816 140.685C14.7303 140.859 17.1843 138.718 17.2971 135.905C17.4101 133.091 15.136 130.672 12.2251 130.496C-7.79086 129.301 -27.5139 135.122 -43.3108 146.889C-59.2633 158.771 -70.0701 175.918 -73.74 195.169Z" fill="#FF9900"/>
<path d="M65.6093 291.879C62.9507 290.627 59.7902 291.664 58.5445 294.2C55.2578 300.898 51.5089 307.462 47.3994 313.707C45.8421 316.073 46.5957 319.251 49.0824 320.804C49.6682 321.169 50.2969 321.412 50.9378 321.539C53.017 321.951 55.2139 321.14 56.4047 319.331C60.7411 312.739 64.6975 305.814 68.1659 298.746C69.4101 296.21 68.2651 293.135 65.6093 291.879Z" fill="#FF9900"/>
<path d="M72.9832 163.03C71.1836 160.743 67.8265 160.261 65.485 161.95C63.1435 163.638 62.7037 166.86 64.5028 169.145C77.3895 185.511 82.5763 206.289 78.7339 226.152L74.4615 248.239C72.84 256.621 70.6032 264.949 67.8123 272.993C66.8827 275.674 68.4013 278.612 71.2041 279.556C71.4411 279.636 71.6799 279.699 71.919 279.746C74.5043 280.254 77.1119 278.868 77.9626 276.415C80.9065 267.929 83.2665 259.144 84.9767 250.304L89.2489 228.218C93.6443 205.5 87.7152 181.74 72.9832 163.03Z" fill="#FF9900"/>
<path d="M50.9042 153.976C51.5568 154.448 52.2809 154.754 53.0233 154.902C54.9483 155.288 56.9933 154.613 58.2147 153.004C59.9073 150.776 59.3779 147.595 57.0334 145.903C50.2579 141.012 42.8059 137.134 34.8844 134.379C32.1379 133.427 29.1746 134.785 28.2555 137.416C27.3364 140.047 28.8137 142.955 31.5556 143.909C38.4758 146.317 44.985 149.704 50.9042 153.976Z" fill="#FF9900"/>
<path d="M26.2897 110.247C24.3462 109.86 22.3705 109.519 20.4164 109.236C17.5226 108.817 14.8788 110.737 14.5112 113.524C14.1443 116.313 16.1874 118.924 19.0855 119.332C20.8479 119.587 22.63 119.894 24.3831 120.244C76.5157 130.645 111.148 179.919 101.584 230.085L97.4075 251.989C96.881 254.75 98.7803 257.452 101.649 258.024C104.518 258.597 107.271 256.823 107.797 254.062L111.973 232.158C122.589 176.48 84.1513 121.791 26.2897 110.247Z" fill="#FF9900"/>
<path d="M-33.064 125.617C-32.0481 125.821 -30.9664 125.738 -29.9548 125.316C-20.2813 121.287 -10.0411 118.883 0.482968 118.169C3.36655 117.974 5.48409 115.548 5.21231 112.752C4.94053 109.957 2.38117 107.85 -0.500536 108.043C-12.1882 108.835 -23.5583 111.504 -34.2953 115.976C-36.9319 117.074 -38.0975 120.055 -36.8984 122.634C-36.1602 124.225 -34.6961 125.29 -33.064 125.617Z" fill="#FF9900"/>
<path d="M134.033 195.754C131.44 178.286 125.179 161.725 115.422 146.531C113.864 144.106 110.593 143.316 108.116 144.767C105.639 146.218 104.893 149.359 106.45 151.785C115.413 165.741 121.164 180.949 123.544 196.985C123.876 199.224 125.654 200.949 127.829 201.381C128.38 201.491 128.957 201.518 129.542 201.449C132.438 201.109 134.449 198.559 134.033 195.754Z" fill="#FF9900"/>
<path d="M70.789 102.601C68.2623 101.172 65.0638 101.969 63.6477 104.383C62.2317 106.796 63.1333 109.91 65.6615 111.339C76.3297 117.369 85.9827 124.943 94.3522 133.853C95.1526 134.705 96.1742 135.242 97.2476 135.457C98.8207 135.772 100.506 135.393 101.768 134.288C103.89 132.43 104.011 129.22 102.039 127.12C92.9253 117.421 82.4114 109.17 70.789 102.601Z" fill="#FF9900"/>
<path d="M-55.7141 114.236C-30.1158 98.4879 0.554708 93.1298 30.6473 99.1489C36.2353 100.267 41.7806 101.778 47.129 103.64C49.8853 104.604 52.8683 103.234 53.7951 100.591C54.7218 97.9477 53.24 95.0284 50.485 94.0689C44.6602 92.0415 38.6238 90.396 32.543 89.1797C-0.233198 82.6239 -33.6358 88.4579 -61.5109 105.607C-89.2993 122.704 -108.693 149.226 -116.118 180.289C-116.769 183.013 -115.001 185.786 -112.169 186.48C-112.09 186.5 -112.012 186.517 -111.933 186.532C-109.181 187.083 -106.494 185.454 -105.86 182.805C-99.0444 154.288 -81.2353 129.937 -55.7141 114.236Z" fill="#FF9900"/>
<path d="M35.9237 66.6351C24.4399 64.3339 12.7532 63.3233 1.18889 63.6313C-1.69051 63.7076 -3.90321 66.032 -3.75425 68.8214C-3.6046 71.6109 -1.14908 73.8107 1.72975 73.7337C12.4859 73.4486 23.3587 74.3886 34.0469 76.5303C71.7027 84.0759 104.111 105.574 125.301 137.062C126.118 138.275 127.367 139.054 128.717 139.325C129.997 139.581 131.365 139.38 132.536 138.658C134.94 137.175 135.6 134.056 134.008 131.692C122.967 115.285 108.992 101.319 92.4704 90.1821C75.3578 78.6469 56.3326 70.7247 35.9237 66.6351Z" fill="#FF9900"/>
<path d="M-34.8877 56.0623C-34.1413 56.2117 -33.3534 56.2057 -32.5736 56.0152C-9.12731 50.3067 14.9609 49.8543 39.0223 54.6695C51.5609 57.1788 63.7794 61.0988 75.3366 66.3203C77.9623 67.5047 81.0356 66.4308 82.199 63.9166C83.3624 61.4024 82.1764 58.4017 79.5491 57.2149C67.2438 51.6554 54.2377 47.4823 40.8933 44.8117C15.2783 39.6856 -10.3694 40.1683 -35.3378 46.2476C-38.1073 46.9219 -39.7337 49.6552 -38.9702 52.3524C-38.4221 54.2895 -36.7899 55.6817 -34.8877 56.0623Z" fill="#FF9900"/>
<path d="M94.7051 77.1185C99.6407 80.2264 104.464 83.6292 109.041 87.2311C109.736 87.7793 110.528 88.1314 111.344 88.2946C113.194 88.6653 115.166 88.0627 116.413 86.5632C118.209 84.4034 117.82 81.2011 115.545 79.4099C110.672 75.5752 105.536 71.9522 100.28 68.6424C97.8234 67.0951 94.5844 67.7392 93.0445 70.0791C91.5052 72.4197 92.2487 75.572 94.7051 77.1185Z" fill="#FF9900"/>
</g>
<defs>
<filter id="filter0_d" x="195" y="222.019" width="306.227" height="36.6655" filterUnits="userSpaceOnUse" color-interpolation-filters="sRGB">
<feFlood flood-opacity="0" result="BackgroundImageFix"/>
<feColorMatrix in="SourceAlpha" type="matrix" values="0 0 0 0 0 0 0 0 0 0 0 0 0 0 0 0 0 0 127 0"/>
<feOffset dy="4"/>
<feGaussianBlur stdDeviation="2"/>
<feColorMatrix type="matrix" values="0 0 0 0 0 0 0 0 0 0 0 0 0 0 0 0 0 0 0.25 0"/>
<feBlend mode="normal" in2="BackgroundImageFix" result="effect1_dropShadow"/>
<feBlend mode="normal" in="SourceGraphic" in2="effect1_dropShadow" result="shape"/>
</filter>
<clipPath id="clip0">
<rect width="706" height="360" fill="white" transform="translate(-1)"/>
</clipPath>
</defs>
</svg>
