<svg width="134" height="220" viewBox="0 0 134 220" fill="none" xmlns="http://www.w3.org/2000/svg">
<g clip-path="url(#clip0)">
<path d="M70.4604 2.25275L133.687 108.975C134.319 110.04 133.96 111.446 132.886 112.11L69.3558 151.359C68.1864 152.081 66.2853 152.081 65.1159 151.356L1.71999 112.113C0.645523 111.446 0.286591 110.04 0.916458 108.973L64.0159 2.25498C65.792 -0.751288 68.6797 -0.751288 70.4604 2.25275Z" fill="#742D75"/>
<path d="M70.9975 17.3773V78.8034L121.22 102.151L70.9975 17.3773Z" fill="#ABE2FE"/>
<path d="M70.9975 86.3612V142.157L122.514 110.289L70.9975 86.3612Z" fill="#85CAF7"/>
<path d="M63.7541 17.3773V78.8034L13.532 102.151L63.7541 17.3773Z" fill="#85CAF7"/>
<path d="M63.7541 86.3612V142.157L12.2376 110.289L63.7541 86.3612Z" fill="#7BBDEA"/>
<path d="M67.2345 162.327L6.30486 125.047C4.58047 124.272 3.13318 124.434 1.963 125.534C0.792816 126.634 0.582092 127.908 1.33083 129.356L64.817 218.948C65.3334 219.707 66.1161 219.976 67.2345 220C68.3553 219.976 69.138 219.707 69.6544 218.948L133.141 129.356C133.889 127.908 133.679 126.634 132.508 125.534C131.338 124.434 129.891 124.272 128.167 125.047L67.2345 162.327Z" fill="#742D75"/>
<path d="M70.9975 168.738V204.8L116.841 140.49L70.9975 168.738Z" fill="#ABE2FE"/>
<path d="M63.7541 168.738V204.8L17.9109 140.49L63.7541 168.738Z" fill="#85CAF7"/>
</g>
<defs>
<clipPath id="clip0">
<rect width="133.394" height="220" fill="white" transform="matrix(-1 0 0 1 134 0)"/>
</clipPath>
</defs>
</svg>
