<svg width="212" height="70" viewBox="0 0 212 70" fill="none" xmlns="http://www.w3.org/2000/svg">
<g clip-path="url(#clip0)">
<path d="M10.5514 0H15.8863C17.0389 0 17.6954 0.898989 17.352 2.00623L10.4712 24.1718H22.4286V1.05109C22.4286 0.471029 22.896 0 23.4723 0H29.7373C30.3136 0 30.7815 0.471029 30.7815 1.05109V42.0382C30.7815 42.6183 30.3136 43.0893 29.7373 43.0893H23.4723C22.896 43.0893 22.4286 42.6183 22.4286 42.0382V31.5289H1.5458C0.393226 31.5289 -0.25618 30.6321 0.0958747 29.5276L9.18864 1.00039C9.36467 0.448132 9.97507 0 10.5514 0Z" fill="#071D49"/>
<path d="M85.8286 0H91.2006C92.3612 0 93.0222 0.898989 92.6764 2.00623L85.7479 24.1718H97.7883V1.05109C97.7883 0.471029 98.2589 0 98.8392 0H105.148C105.728 0 106.199 0.471029 106.199 1.05109V42.0382C106.199 42.6183 105.728 43.0893 105.148 43.0893H98.8392C98.2589 43.0893 97.7883 42.6183 97.7883 42.0382V31.5289H76.7606C75.6 31.5289 74.9461 30.6321 75.3006 29.5276L84.4564 1.00039C84.6337 0.448131 85.2483 0 85.8286 0Z" fill="#0047BB"/>
<path d="M74.7318 35.9541H80.1038C81.2644 35.9541 81.9194 36.8515 81.566 37.9565L80.2772 41.9832C80.082 42.5938 79.4024 43.0893 78.7611 43.0893H73.4671C72.3065 43.0893 71.6553 42.1936 72.0136 41.0902L73.3563 36.9539C73.5352 36.4022 74.1515 35.9541 74.7318 35.9541Z" fill="#0047BB"/>
<path d="M149.894 3.45217V7.89692C149.894 8.53204 150.396 8.97435 151.015 8.88362L155.802 8.18153V36.0112H150.318C149.752 36.0112 149.293 36.4778 149.293 37.0524V42.0481C149.293 42.6227 149.752 43.0893 150.318 43.0893H169.2C169.766 43.0893 170.224 42.6227 170.224 42.0481V37.0524C170.224 36.4778 169.766 36.0112 169.2 36.0112H164.112V1.72773C164.112 0.578469 163.21 -0.179245 162.099 0.0367816L150.9 2.21487C150.345 2.32343 149.894 2.87754 149.894 3.45217Z" fill="#009CDE"/>
<path d="M190.681 0H196.053C197.214 0 197.875 0.898989 197.528 2.00623L190.6 24.1724H202.64V1.05109C202.64 0.471029 203.112 0 203.692 0H210C210.581 0 211.051 0.471029 211.051 1.05109V42.0382C211.051 42.6183 210.581 43.0893 210 43.0893H203.692C203.112 43.0893 202.64 42.6183 202.64 42.0382V31.5289H181.613C180.453 31.5289 179.798 30.6321 180.153 29.5276L189.309 1.00094C189.486 0.448677 190.101 0 190.681 0Z" fill="#0047BB"/>
<path d="M179.198 35.9547H184.57C185.73 35.9547 186.385 36.8515 186.032 37.9566L184.743 41.9832C184.547 42.5938 183.868 43.0894 183.227 43.0894H177.933C176.772 43.0894 176.121 42.1937 176.479 41.0902L177.822 36.954C178.001 36.4023 178.617 35.9547 179.198 35.9547Z" fill="#0047BB"/>
<path d="M36.9446 32.534C36.745 38.873 40.9556 43.1441 51.3962 43.0452C60.6858 43.5287 65.5041 40.0353 65.759 32.534V28.6422C65.759 28.0761 65.2992 27.6165 64.7329 27.6165H58.5773C58.0111 27.6165 57.5518 28.0761 57.5518 28.6422V32.534C57.1804 34.4555 56.2501 35.6067 54.7303 35.9567C52.2801 36.377 50.0589 36.4078 48.2144 35.9567C46.5348 35.7583 45.5535 34.6279 45.2406 32.534V10.5117C45.4253 9.18122 46.1724 8.51626 46.9398 7.9795C48.5991 6.92195 53.3115 6.63363 55.5237 7.9795C56.1645 8.38646 57.1591 9.01312 57.5518 10.5117V13.8764C57.5518 14.4424 58.0111 14.902 58.5773 14.902H64.7329C65.2992 14.902 65.759 14.4424 65.759 13.8764V10.5117C65.3242 3.60088 60.5267 0.0867106 51.3962 0C41.9363 0.0723475 37.1298 3.58652 36.9446 10.5117V32.534Z" fill="#009CDE"/>
<path d="M143.131 32.2288C143.336 38.5088 138.142 43.1777 127.405 43.0796C127.159 43.092 122.494 43.0925 113.411 43.0813C112.828 43.0802 112.355 42.6087 112.355 42.0288V25.922C112.355 25.3519 112.821 24.8891 113.393 24.8891H119.758C120.33 24.8891 120.795 25.3519 120.795 25.922V29.7602V35.3465C120.795 35.6773 121.065 35.946 121.398 35.946H129.507C131.523 35.7918 134.2 34.4499 134.288 31.8581V10.4132C133.902 8.57308 132.393 7.44919 129.729 7.01043H120.795V19.0538C120.795 19.624 120.33 20.0867 119.758 20.0867H113.393C112.821 20.0867 112.355 19.624 112.355 19.0538V0C116.498 0.0570485 121.699 0.0570485 127.958 0C137.686 0.0719465 142.94 3.38421 143.131 10.2448V32.2288Z" fill="#6AD1E3"/>
</g>
<path d="M93.7523 67.6795H92.6763V54.4251H99.9668V55.3904H93.7523V60.8481H99.6143V61.8134H93.7523V67.6795Z" fill="#071D49"/>
<path d="M113.284 61.0338C113.284 62.3827 113.061 63.5708 112.616 64.598C112.171 65.6251 111.503 66.4296 110.612 67.0112C109.734 67.5805 108.64 67.8651 107.329 67.8651C105.993 67.8651 104.88 67.5805 103.99 67.0112C103.112 66.4296 102.45 65.6251 102.005 64.598C101.572 63.5584 101.355 62.3642 101.355 61.0152C101.355 59.6662 101.578 58.4844 102.023 57.4696C102.481 56.4548 103.155 55.6627 104.045 55.0934C104.948 54.5118 106.061 54.2209 107.384 54.2209C108.658 54.2209 109.734 54.4994 110.612 55.0563C111.49 55.6008 112.152 56.3805 112.597 57.3953C113.055 58.4101 113.284 59.6229 113.284 61.0338ZM102.487 61.0152C102.487 62.1909 102.66 63.2243 103.006 64.1153C103.353 64.994 103.885 65.6808 104.602 66.1759C105.319 66.6709 106.228 66.9184 107.329 66.9184C108.442 66.9184 109.351 66.6771 110.056 66.1944C110.773 65.6994 111.299 65.0125 111.633 64.1339C111.979 63.2428 112.152 62.2095 112.152 61.0338C112.152 59.1898 111.75 57.7542 110.946 56.727C110.155 55.6998 108.967 55.1863 107.384 55.1863C106.284 55.1863 105.369 55.4338 104.639 55.9288C103.909 56.4114 103.365 57.0921 103.006 57.9708C102.66 58.8371 102.487 59.8519 102.487 61.0152Z" fill="#071D49"/>
<path d="M126.113 54.4251V63.0015C126.113 64.5113 125.674 65.6994 124.796 66.5657C123.93 67.432 122.7 67.8651 121.104 67.8651C119.509 67.8651 118.284 67.432 117.431 66.5657C116.59 65.6994 116.17 64.499 116.17 62.9644V54.4251H117.246V62.9644C117.246 64.2514 117.58 65.2353 118.247 65.916C118.915 66.5843 119.886 66.9184 121.16 66.9184C122.409 66.9184 123.367 66.5781 124.035 65.8974C124.715 65.2167 125.055 64.2762 125.055 63.0758V54.4251H126.113Z" fill="#071D49"/>
<path d="M139.501 67.6795H138.35L130.67 56.0959H130.615C130.639 56.5785 130.658 57.0921 130.67 57.6366C130.695 58.1688 130.707 58.7257 130.707 59.3074V67.6795H129.687V54.4251H130.837L138.499 65.9717H138.554C138.53 65.588 138.511 65.0992 138.499 64.5051C138.486 63.9111 138.48 63.3542 138.48 62.8344V54.4251H139.501V67.6795Z" fill="#071D49"/>
<path d="M153.386 60.9224C153.386 63.15 152.792 64.8331 151.605 65.9717C150.43 67.1102 148.724 67.6795 146.485 67.6795H143.202V54.4251H146.893C148.983 54.4251 150.585 54.9821 151.698 56.0959C152.823 57.1973 153.386 58.8061 153.386 60.9224ZM152.254 60.9595C152.254 57.2344 150.393 55.3719 146.671 55.3719H144.278V66.7328H146.392C150.3 66.7328 152.254 64.8083 152.254 60.9595Z" fill="#071D49"/>
<path d="M164.32 67.6795L162.558 63.1129H157.067L155.267 67.6795H154.173L159.385 54.3695H160.369L165.452 67.6795H164.32ZM162.224 62.129L160.461 57.3582C160.387 57.1849 160.288 56.9127 160.165 56.5414C160.041 56.1701 159.936 55.8422 159.849 55.5575C159.75 55.8917 159.645 56.2196 159.534 56.5414C159.423 56.8632 159.33 57.1416 159.256 57.3767L157.419 62.129H162.224Z" fill="#071D49"/>
<path d="M169.608 67.6795H168.533V55.3904H164.266V54.4251H173.875V55.3904H169.608V67.6795Z" fill="#071D49"/>
<path d="M178.851 67.6795H174.956V67.0112L176.366 66.807V55.3162L174.956 55.0934V54.4251H178.851V55.0934L177.442 55.3162V66.807L178.851 67.0112V67.6795Z" fill="#071D49"/>
<path d="M192.849 61.0338C192.849 62.3827 192.626 63.5708 192.181 64.598C191.736 65.6251 191.068 66.4296 190.177 67.0112C189.299 67.5805 188.205 67.8651 186.894 67.8651C185.558 67.8651 184.445 67.5805 183.555 67.0112C182.677 66.4296 182.015 65.6251 181.57 64.598C181.137 63.5584 180.921 62.3642 180.921 61.0152C180.921 59.6662 181.143 58.4844 181.588 57.4696C182.046 56.4548 182.72 55.6627 183.61 55.0934C184.513 54.5118 185.626 54.2209 186.95 54.2209C188.223 54.2209 189.299 54.4994 190.177 55.0563C191.056 55.6008 191.717 56.3805 192.162 57.3953C192.62 58.4101 192.849 59.6229 192.849 61.0338ZM182.052 61.0152C182.052 62.1909 182.225 63.2243 182.572 64.1153C182.918 64.994 183.45 65.6808 184.167 66.1759C184.884 66.6709 185.793 66.9184 186.894 66.9184C188.007 66.9184 188.916 66.6771 189.621 66.1944C190.338 65.6994 190.864 65.0125 191.198 64.1339C191.544 63.2428 191.717 62.2095 191.717 61.0338C191.717 59.1898 191.315 57.7542 190.511 56.727C189.72 55.6998 188.533 55.1863 186.95 55.1863C185.849 55.1863 184.934 55.4338 184.204 55.9288C183.474 56.4114 182.93 57.0921 182.572 57.9708C182.225 58.8371 182.052 59.8519 182.052 61.0152Z" fill="#071D49"/>
<path d="M205.678 67.6795H204.528L196.848 56.0959H196.792C196.817 56.5785 196.836 57.0921 196.848 57.6366C196.873 58.1688 196.885 58.7257 196.885 59.3074V67.6795H195.865V54.4251H197.015L204.676 65.9717H204.732C204.707 65.588 204.689 65.0992 204.676 64.5051C204.664 63.9111 204.658 63.3542 204.658 62.8344V54.4251H205.678V67.6795Z" fill="#071D49"/>
<defs>
<clipPath id="clip0">
<rect width="211.16" height="43.0893" fill="white"/>
</clipPath>
</defs>
</svg>
