<svg width="212" height="70" viewBox="0 0 212 70" fill="none" xmlns="http://www.w3.org/2000/svg">
<g clip-path="url(#clip0)">
<path d="M10.5514 0H15.8863C17.0389 0 17.6954 0.898989 17.352 2.00623L10.4712 24.1718H22.4286V1.05109C22.4286 0.471029 22.896 0 23.4723 0H29.7373C30.3136 0 30.7815 0.471029 30.7815 1.05109V42.0382C30.7815 42.6183 30.3136 43.0893 29.7373 43.0893H23.4723C22.896 43.0893 22.4286 42.6183 22.4286 42.0382V31.5289H1.5458C0.393226 31.5289 -0.25618 30.6321 0.0958747 29.5276L9.18864 1.00039C9.36467 0.448132 9.97507 0 10.5514 0Z" fill="#071D49"/>
<path d="M85.8286 0H91.2006C92.3612 0 93.0222 0.898989 92.6764 2.00623L85.7479 24.1718H97.7883V1.05109C97.7883 0.471029 98.2589 0 98.8392 0H105.148C105.728 0 106.199 0.471029 106.199 1.05109V42.0382C106.199 42.6183 105.728 43.0893 105.148 43.0893H98.8392C98.2589 43.0893 97.7883 42.6183 97.7883 42.0382V31.5289H76.7606C75.6 31.5289 74.9461 30.6321 75.3006 29.5276L84.4564 1.00039C84.6337 0.448131 85.2483 0 85.8286 0Z" fill="#0047BB"/>
<path d="M74.7318 35.9541H80.1038C81.2644 35.9541 81.9194 36.8515 81.566 37.9565L80.2772 41.9832C80.082 42.5938 79.4024 43.0893 78.7611 43.0893H73.4671C72.3065 43.0893 71.6553 42.1936 72.0136 41.0902L73.3563 36.9539C73.5352 36.4022 74.1515 35.9541 74.7318 35.9541Z" fill="#0047BB"/>
<path d="M149.894 3.45217V7.89692C149.894 8.53204 150.396 8.97435 151.015 8.88362L155.802 8.18153V36.0112H150.318C149.752 36.0112 149.293 36.4778 149.293 37.0524V42.0481C149.293 42.6227 149.752 43.0893 150.318 43.0893H169.2C169.766 43.0893 170.224 42.6227 170.224 42.0481V37.0524C170.224 36.4778 169.766 36.0112 169.2 36.0112H164.112V1.72773C164.112 0.578469 163.21 -0.179245 162.099 0.0367816L150.9 2.21487C150.345 2.32343 149.894 2.87754 149.894 3.45217Z" fill="#009CDE"/>
<path d="M190.681 0H196.053C197.214 0 197.875 0.898989 197.528 2.00623L190.6 24.1724H202.64V1.05109C202.64 0.471029 203.112 0 203.692 0H210C210.581 0 211.051 0.471029 211.051 1.05109V42.0382C211.051 42.6183 210.581 43.0893 210 43.0893H203.692C203.112 43.0893 202.64 42.6183 202.64 42.0382V31.5289H181.613C180.453 31.5289 179.798 30.6321 180.153 29.5276L189.309 1.00094C189.486 0.448677 190.101 0 190.681 0Z" fill="#0047BB"/>
<path d="M179.198 35.9547H184.57C185.73 35.9547 186.385 36.8515 186.032 37.9566L184.743 41.9832C184.547 42.5938 183.868 43.0894 183.227 43.0894H177.933C176.772 43.0894 176.121 42.1937 176.479 41.0902L177.822 36.954C178.001 36.4023 178.617 35.9547 179.198 35.9547Z" fill="#0047BB"/>
<path d="M36.9446 32.534C36.745 38.873 40.9556 43.1441 51.3962 43.0452C60.6858 43.5287 65.5041 40.0353 65.759 32.534V28.6422C65.759 28.0761 65.2992 27.6165 64.7329 27.6165H58.5773C58.0111 27.6165 57.5518 28.0761 57.5518 28.6422V32.534C57.1804 34.4555 56.2501 35.6067 54.7303 35.9567C52.2801 36.377 50.0589 36.4078 48.2144 35.9567C46.5348 35.7583 45.5535 34.6279 45.2406 32.534V10.5117C45.4253 9.18122 46.1724 8.51626 46.9398 7.9795C48.5991 6.92195 53.3115 6.63363 55.5237 7.9795C56.1645 8.38646 57.1591 9.01312 57.5518 10.5117V13.8764C57.5518 14.4424 58.0111 14.902 58.5773 14.902H64.7329C65.2992 14.902 65.759 14.4424 65.759 13.8764V10.5117C65.3242 3.60088 60.5267 0.0867106 51.3962 0C41.9363 0.0723475 37.1298 3.58652 36.9446 10.5117V32.534Z" fill="#009CDE"/>
<path d="M143.131 32.2288C143.336 38.5088 138.142 43.1777 127.405 43.0796C127.159 43.092 122.494 43.0925 113.411 43.0813C112.828 43.0802 112.355 42.6087 112.355 42.0288V25.922C112.355 25.3519 112.821 24.8891 113.393 24.8891H119.758C120.33 24.8891 120.795 25.3519 120.795 25.922V29.7602V35.3465C120.795 35.6773 121.065 35.946 121.398 35.946H129.507C131.523 35.7918 134.2 34.4499 134.288 31.8581V10.4132C133.902 8.57308 132.393 7.44919 129.729 7.01043H120.795V19.0538C120.795 19.624 120.33 20.0867 119.758 20.0867H113.393C112.821 20.0867 112.355 19.624 112.355 19.0538V0C116.498 0.0570485 121.699 0.0570485 127.958 0C137.686 0.0719465 142.94 3.38421 143.131 10.2448V32.2288Z" fill="#6AD1E3"/>
</g>
<path d="M137.736 67.6795H136.659V54.4251H143.955V55.3904H137.736V60.8481H143.602V61.8134H137.736V67.6795Z" fill="#071D49"/>
<path d="M153.985 67.6795L152.222 63.1129H146.727L144.926 67.6795H143.831L149.047 54.3695H150.031L155.118 67.6795H153.985ZM151.888 62.129L150.124 57.3582C150.05 57.1849 149.951 56.9127 149.827 56.5414C149.703 56.1701 149.598 55.8422 149.512 55.5575C149.413 55.8917 149.307 56.2196 149.196 56.5414C149.085 56.8632 148.992 57.1416 148.918 57.3767L147.08 62.129H151.888Z" fill="#071D49"/>
<path d="M162.262 55.2048C161.173 55.2048 160.239 55.4523 159.459 55.9474C158.679 56.43 158.079 57.1107 157.658 57.9893C157.25 58.8556 157.046 59.8643 157.046 61.0152C157.046 62.2033 157.232 63.2428 157.603 64.1339C157.974 65.0125 158.531 65.6932 159.273 66.1759C160.028 66.6585 160.963 66.8998 162.077 66.8998C162.72 66.8998 163.308 66.8503 163.84 66.7513C164.385 66.6523 164.898 66.5286 165.381 66.3801V67.3082C164.923 67.4815 164.422 67.6176 163.877 67.7166C163.333 67.8156 162.695 67.8651 161.965 67.8651C160.629 67.8651 159.509 67.5805 158.605 67.0112C157.714 66.4419 157.04 65.6437 156.582 64.6165C156.136 63.5893 155.913 62.3889 155.913 61.0152C155.913 59.7034 156.161 58.5401 156.656 57.5253C157.163 56.4981 157.887 55.6937 158.828 55.112C159.781 54.5303 160.932 54.2395 162.281 54.2395C163.568 54.2395 164.725 54.4808 165.752 54.9635L165.325 55.9102C164.372 55.44 163.351 55.2048 162.262 55.2048Z" fill="#071D49"/>
<path d="M171.786 67.6795H170.71V55.3904H166.44V54.4251H176.056V55.3904H171.786V67.6795Z" fill="#071D49"/>
<path d="M188.915 61.0338C188.915 62.3827 188.692 63.5708 188.247 64.598C187.801 65.6251 187.133 66.4296 186.242 67.0112C185.363 67.5805 184.268 67.8651 182.956 67.8651C181.62 67.8651 180.506 67.5805 179.615 67.0112C178.736 66.4296 178.074 65.6251 177.628 64.598C177.195 63.5584 176.979 62.3642 176.979 61.0152C176.979 59.6662 177.202 58.4844 177.647 57.4696C178.105 56.4548 178.779 55.6627 179.67 55.0934C180.574 54.5118 181.688 54.2209 183.012 54.2209C184.287 54.2209 185.363 54.4994 186.242 55.0563C187.121 55.6008 187.783 56.3805 188.228 57.3953C188.686 58.4101 188.915 59.6229 188.915 61.0338ZM178.111 61.0152C178.111 62.1909 178.284 63.2243 178.631 64.1153C178.977 64.994 179.51 65.6808 180.227 66.1759C180.945 66.6709 181.855 66.9184 182.956 66.9184C184.07 66.9184 184.98 66.6771 185.685 66.1944C186.403 65.6994 186.929 65.0125 187.263 64.1339C187.609 63.2428 187.783 62.2095 187.783 61.0338C187.783 59.1898 187.381 57.7542 186.576 56.727C185.784 55.6998 184.596 55.1863 183.012 55.1863C181.91 55.1863 180.995 55.4338 180.265 55.9288C179.534 56.4114 178.99 57.0921 178.631 57.9708C178.284 58.8371 178.111 59.8519 178.111 61.0152Z" fill="#071D49"/>
<path d="M195.237 54.4251C196.822 54.4251 198.01 54.7036 198.802 55.2605C199.606 55.805 200.008 56.7394 200.008 58.0636C200.008 59.0784 199.736 59.8766 199.191 60.4583C198.659 61.0276 197.991 61.4298 197.187 61.6649L200.825 67.6795H199.544L196.166 61.9619H193.01V67.6795H191.933V54.4251H195.237ZM195.145 55.3719H193.01V61.0338H195.516C196.593 61.0338 197.422 60.7862 198.003 60.2912C198.597 59.7838 198.894 59.0537 198.894 58.1007C198.894 57.0859 198.585 56.3805 197.966 55.9845C197.348 55.5761 196.407 55.3719 195.145 55.3719Z" fill="#071D49"/>
<path d="M206.183 61.5164L209.97 54.4251H211.158L206.74 62.556V67.6795H205.663V62.6302L201.208 54.4251H202.396L206.183 61.5164Z" fill="#071D49"/>
<defs>
<clipPath id="clip0">
<rect width="211.16" height="43.0893" fill="white"/>
</clipPath>
</defs>
</svg>
