<?xml version="1.0" standalone="no"?>
<!DOCTYPE svg PUBLIC "-//W3C//DTD SVG 20010904//EN"
 "http://www.w3.org/TR/2001/REC-SVG-20010904/DTD/svg10.dtd">
<svg version="1.0" xmlns="http://www.w3.org/2000/svg"
 width="3606.000000pt" height="1341.000000pt" viewBox="0 0 3606.000000 1341.000000"
 preserveAspectRatio="xMidYMid meet">

<g transform="translate(0.000000,1341.000000) scale(0.100000,-0.100000)"
fill="#000000" stroke="none">
<path d="M0 6705 l0 -6705 18030 0 18030 0 0 6705 0 6705 -18030 0 -18030 0 0
-6705z m7155 5951 c89 -7 181 -23 200 -35 23 -14 82 -31 110 -31 41 0 107 -19
125 -36 9 -7 44 -20 79 -28 35 -8 79 -26 100 -40 20 -13 50 -28 66 -32 17 -3
39 -14 50 -23 30 -24 63 -41 79 -41 8 0 21 -8 28 -19 7 -10 32 -28 55 -39 23
-12 45 -26 48 -32 4 -6 11 -7 17 -4 7 4 8 2 4 -4 -4 -7 2 -16 17 -21 14 -5 36
-20 50 -33 46 -43 112 -93 119 -91 5 2 7 -3 5 -10 -1 -6 4 -11 10 -10 7 2 12
-1 10 -5 -2 -8 6 -18 93 -111 22 -24 40 -48 40 -53 0 -5 16 -24 35 -42 19 -19
35 -43 35 -54 0 -11 10 -29 23 -39 21 -17 27 -27 61 -104 9 -20 22 -42 30 -48
12 -10 40 -106 37 -126 -1 -3 14 -33 33 -68 l34 -63 -2 -291 c-1 -253 -3 -293
-17 -309 -27 -31 -47 -77 -54 -128 -5 -28 -21 -68 -41 -98 -19 -27 -34 -58
-34 -67 0 -9 -14 -32 -31 -50 -19 -21 -29 -41 -26 -52 3 -11 1 -17 -4 -13 -5
3 -13 -5 -18 -18 -5 -13 -23 -36 -40 -52 -17 -17 -31 -33 -31 -37 0 -4 -33
-42 -74 -85 -41 -43 -72 -82 -69 -88 3 -5 1 -6 -5 -2 -14 8 -74 -43 -65 -56 4
-7 1 -8 -7 -3 -7 4 -16 2 -21 -6 -4 -8 -12 -14 -16 -14 -4 -1 -21 -12 -37 -25
-15 -14 -45 -39 -65 -57 -20 -17 -49 -35 -63 -38 -14 -4 -36 -18 -49 -31 -12
-13 -30 -24 -38 -24 -22 -1 -52 -25 -43 -35 4 -5 -1 -5 -10 -2 -9 3 -27 -2
-40 -12 -25 -19 -84 -42 -90 -35 -3 2 -15 -7 -27 -20 -13 -14 -29 -22 -36 -20
-7 3 -16 1 -20 -5 -3 -6 -22 -11 -42 -11 -29 0 -80 -24 -103 -50 -3 -3 -14 -6
-25 -6 -20 -1 -95 -11 -149 -20 -15 -3 -41 -11 -56 -19 -101 -52 -834 -50
-903 2 -10 8 -59 18 -186 38 -12 2 -42 14 -64 26 -36 18 -54 24 -102 33 -24 4
-75 29 -75 37 0 5 -26 16 -57 25 -32 9 -67 24 -78 33 -26 21 -62 41 -74 41 -5
0 -35 18 -67 39 -32 22 -63 37 -69 34 -5 -4 -7 -3 -3 1 13 15 -69 74 -94 68
-4 -1 -5 5 -2 13 4 9 -1 17 -12 21 -11 4 -35 22 -54 40 -75 71 -89 82 -95 76
-3 -4 -3 1 0 9 4 10 -3 19 -20 27 -14 6 -25 16 -25 22 0 6 -5 8 -12 4 -8 -5
-9 -2 -5 10 5 14 3 17 -8 12 -9 -3 -15 0 -15 9 0 7 -12 23 -26 34 -14 11 -23
24 -20 29 3 5 -6 20 -20 33 -14 13 -36 44 -48 69 -13 25 -35 58 -49 74 -15 15
-26 31 -25 35 2 22 -6 43 -33 85 -17 25 -32 61 -34 79 -3 44 -16 88 -24 83 -3
-2 -6 9 -7 24 -1 16 -9 45 -18 65 -13 27 -19 73 -23 183 -6 179 7 319 38 387
21 46 26 67 33 120 4 31 25 77 41 89 8 6 16 23 19 37 6 36 35 91 56 106 10 7
21 25 24 39 4 15 20 43 37 63 16 20 29 40 29 46 1 13 37 60 47 60 14 0 188
179 185 190 -2 6 0 7 3 3 10 -10 76 42 69 53 -3 5 -2 8 3 7 14 -4 67 29 90 56
13 14 30 26 39 26 9 0 12 5 8 12 -4 7 -3 8 5 4 6 -4 27 6 48 23 20 16 40 28
44 26 3 -3 24 7 45 22 22 14 59 32 83 40 25 7 52 20 61 28 16 14 121 55 148
57 6 1 12 6 12 11 0 6 3 8 6 4 4 -3 21 1 38 10 17 9 47 18 66 20 53 5 132 24
162 39 68 35 485 51 763 30z m4645 -2129 c14 -3 38 -9 53 -16 16 -6 80 -16
144 -21 132 -12 159 -17 192 -39 13 -8 47 -19 75 -23 28 -5 62 -10 75 -12 12
-3 33 -14 45 -25 12 -12 30 -21 39 -21 9 0 19 -4 22 -10 3 -5 20 -10 37 -10
18 0 41 -8 52 -19 12 -10 48 -28 81 -40 33 -13 62 -26 65 -30 3 -5 24 -18 48
-30 36 -18 46 -20 60 -10 14 11 15 11 5 -1 -10 -11 -9 -18 9 -37 12 -13 27
-23 34 -23 8 0 29 -16 49 -36 20 -20 42 -33 50 -30 8 3 17 -3 20 -15 4 -11 20
-28 36 -38 15 -9 38 -29 49 -44 12 -15 28 -27 36 -27 8 0 17 -8 21 -17 6 -18
28 -44 104 -123 24 -25 46 -50 48 -55 15 -39 27 -57 47 -70 14 -9 29 -35 37
-63 8 -26 26 -64 40 -85 14 -20 28 -56 32 -80 4 -23 17 -56 30 -72 13 -18 26
-53 30 -85 4 -30 9 -62 10 -71 12 -65 15 -285 5 -399 -15 -184 -16 -186 -38
-225 -11 -18 -28 -62 -37 -96 -8 -35 -24 -71 -35 -81 -27 -25 -53 -77 -46 -93
3 -8 -9 -26 -27 -41 -29 -24 -36 -38 -39 -71 -1 -7 -5 -10 -9 -8 -4 3 -22 -16
-40 -42 -19 -25 -50 -64 -70 -85 -20 -21 -34 -38 -31 -38 3 0 -4 -8 -17 -17
-61 -47 -81 -66 -76 -71 3 -3 -8 -11 -25 -18 -16 -7 -30 -20 -30 -29 0 -9 -4
-13 -10 -10 -5 3 -10 1 -10 -5 0 -5 -16 -18 -35 -27 -19 -9 -37 -25 -40 -34
-3 -10 -22 -23 -42 -30 -20 -6 -47 -23 -59 -36 -13 -14 -29 -26 -36 -27 -29
-6 -65 -25 -93 -50 -16 -14 -40 -26 -53 -26 -13 0 -20 -4 -17 -10 3 -5 0 -7
-8 -4 -8 3 -27 -5 -43 -18 -16 -13 -45 -25 -64 -27 -38 -3 -65 -15 -93 -39
-10 -9 -23 -17 -30 -18 -84 -13 -149 -30 -179 -46 -27 -13 -73 -22 -160 -29
-68 -5 -154 -15 -193 -21 -102 -19 -429 -14 -463 5 -4 3 -52 8 -107 12 -140 9
-147 10 -191 33 -21 11 -69 24 -107 30 -37 6 -79 19 -95 30 -22 16 -52 30 -82
37 -52 14 -67 20 -80 30 -20 17 -80 47 -80 40 0 -2 -15 4 -32 15 -18 11 -57
31 -85 44 -29 14 -53 29 -53 33 0 5 -15 17 -32 28 -30 17 -77 51 -152 108 -58
45 -187 177 -196 203 -7 17 -15 24 -25 20 -8 -3 -14 -1 -12 3 1 5 -10 23 -25
40 -16 17 -28 34 -28 38 0 5 -11 18 -24 30 -12 12 -31 43 -40 68 -10 25 -21
43 -26 40 -9 -5 -50 76 -50 98 0 8 -11 30 -24 50 -22 32 -34 66 -41 120 -8 58
-17 93 -37 131 -19 37 -21 61 -24 225 -3 152 0 187 12 207 9 13 13 28 9 34 -3
5 -2 10 3 10 8 0 32 85 46 166 3 18 16 49 31 69 14 21 30 56 36 79 6 22 21 52
34 66 12 14 25 37 29 52 3 14 26 50 51 79 24 28 42 55 40 59 -3 5 2 11 11 14
8 3 12 11 8 17 -4 7 -3 9 3 6 10 -6 43 26 43 42 0 13 199 197 247 228 23 15
40 31 37 35 -3 5 -2 7 3 6 4 -2 26 8 48 22 21 14 53 33 69 44 17 10 41 27 55
37 13 10 41 24 62 29 22 6 39 15 39 20 0 6 5 10 12 10 6 0 19 6 27 14 9 7 38
19 65 25 27 7 60 21 73 31 20 15 94 38 148 45 20 2 45 17 41 24 -3 4 7 8 21 9
14 1 31 6 38 12 6 5 14 7 17 4 3 -3 39 0 79 6 41 6 90 12 109 14 19 2 55 8 80
14 25 7 61 14 80 16 41 4 373 -1 410 -7z m-9235 -171 c17 -3 55 -6 85 -7 30
-1 65 -9 77 -17 13 -8 30 -12 38 -8 8 3 15 1 15 -4 0 -8 70 -26 138 -35 19 -2
45 -11 58 -20 14 -9 53 -25 87 -36 34 -11 73 -28 87 -38 14 -10 41 -22 60 -26
19 -4 53 -23 74 -41 34 -30 58 -40 69 -31 2 1 18 -10 36 -25 29 -25 43 -32 62
-30 4 1 15 -8 25 -19 11 -11 30 -30 43 -42 13 -12 40 -37 59 -54 19 -18 37
-33 40 -33 15 0 170 -157 185 -187 9 -17 27 -40 40 -50 13 -10 32 -36 43 -58
11 -25 25 -40 36 -39 11 1 14 -4 11 -14 -5 -11 -3 -13 7 -7 8 5 11 4 7 -2 -10
-17 22 -98 49 -123 14 -14 24 -35 24 -51 0 -32 24 -91 43 -108 23 -18 29 -51
47 -262 11 -127 11 -167 -5 -325 -17 -173 -25 -214 -45 -214 -5 0 -14 -19 -20
-42 -17 -73 -32 -112 -47 -130 -8 -9 -12 -22 -7 -29 5 -8 3 -10 -6 -4 -10 6
-12 4 -7 -8 3 -9 3 -17 -1 -19 -4 -2 -15 -20 -24 -40 -10 -21 -25 -38 -33 -38
-9 0 -22 -15 -30 -32 -7 -18 -27 -46 -44 -62 -17 -16 -28 -34 -24 -39 3 -6 1
-7 -5 -3 -7 4 -12 3 -12 -3 0 -5 -12 -23 -26 -40 -14 -17 -23 -35 -19 -41 4
-6 3 -9 -2 -8 -14 4 -82 -46 -94 -69 -7 -13 -16 -23 -20 -23 -5 0 -23 -16 -40
-35 -18 -19 -38 -35 -46 -35 -7 0 -27 -16 -44 -35 -17 -19 -40 -35 -50 -35
-10 0 -26 -11 -35 -25 -9 -14 -22 -25 -29 -25 -18 0 -71 -28 -85 -45 -7 -8
-19 -15 -26 -15 -16 0 -50 -18 -79 -41 -11 -9 -33 -19 -50 -23 -53 -12 -85
-28 -78 -40 3 -6 2 -8 -2 -3 -5 4 -18 1 -30 -7 -12 -8 -48 -19 -80 -25 -32 -6
-72 -19 -89 -29 -41 -24 -68 -32 -141 -38 -33 -3 -76 -10 -95 -15 -19 -6 -57
-17 -85 -25 -38 -11 -116 -14 -330 -14 -154 -1 -291 2 -305 6 -14 3 -38 8 -55
11 -16 3 -35 9 -41 14 -6 5 -26 11 -45 13 -19 3 -56 8 -84 12 -27 4 -59 8 -71
9 -11 2 -45 14 -75 28 -30 14 -76 29 -103 33 -27 3 -57 15 -67 25 -11 11 -25
19 -33 19 -8 0 -18 5 -21 11 -4 6 -13 8 -20 5 -7 -2 -33 8 -57 23 -24 15 -65
36 -91 46 -26 10 -47 21 -47 26 0 4 -20 17 -44 27 -24 11 -47 25 -50 31 -4 6
-31 27 -59 45 -29 19 -68 49 -88 68 -59 56 -91 78 -102 71 -6 -3 -7 -1 -3 5 6
10 -28 51 -132 160 -17 19 -32 39 -32 45 0 6 -18 29 -39 52 -22 22 -42 52 -45
67 -6 37 -15 50 -28 42 -7 -4 -8 -2 -4 5 4 6 -1 19 -13 29 -19 16 -28 41 -30
83 -1 9 -14 32 -30 52 -20 26 -30 52 -35 94 -10 84 -17 105 -32 99 -22 -8 -26
43 -22 299 3 230 4 241 24 261 14 14 24 41 29 75 4 30 17 72 30 94 12 22 28
66 35 99 9 46 17 61 40 74 15 9 38 34 49 57 12 22 30 54 41 70 11 17 23 37 26
45 4 8 21 29 38 46 17 16 41 41 53 55 13 13 32 32 44 42 11 10 18 25 15 32 -3
9 0 12 8 9 12 -5 51 27 138 112 21 20 38 33 38 30 0 -4 9 -2 20 4 11 6 20 16
20 23 0 7 9 18 20 25 12 7 18 18 13 25 -4 7 -1 7 10 -2 9 -7 17 -9 17 -4 0 5
9 9 20 10 11 1 30 11 42 23 12 11 39 25 59 30 37 10 63 31 54 43 -3 4 -2 5 1
3 11 -8 120 32 158 57 21 15 43 24 48 21 11 -7 96 23 118 41 8 7 33 16 55 19
60 10 156 33 190 46 52 21 311 37 540 33 121 -2 234 -5 250 -7z m460 -104 c-3
-3 -11 0 -18 7 -9 10 -8 11 6 5 10 -3 15 -9 12 -12z m26166 -391 c-9 -6 -10
-11 -2 -15 6 -4 15 -5 20 -1 15 9 30 -27 20 -50 -6 -17 -8 -16 -8 9 -1 20 -5
27 -15 23 -8 -3 -141 -94 -297 -203 -156 -109 -455 -317 -664 -463 -209 -145
-549 -382 -755 -526 -860 -600 -1462 -1019 -1477 -1028 -7 -4 -49 18 -100 54
-86 60 -134 99 -82 66 18 -11 30 -12 37 -5 7 7 10 5 9 -7 -1 -10 4 -20 12 -23
8 -2 11 0 8 5 -3 5 0 10 7 10 8 0 12 -6 9 -13 -5 -14 51 -59 85 -67 16 -4 36
5 70 30 26 20 49 39 52 42 3 3 21 15 40 25 43 24 71 51 62 62 -4 4 -2 5 3 1
14 -8 76 23 69 34 -3 5 0 8 8 7 7 -2 12 3 10 10 -1 8 2 11 7 7 6 -3 19 3 29
13 11 11 48 36 83 57 35 21 76 50 92 66 15 16 30 28 35 28 20 -3 31 3 37 21 3
11 9 19 13 18 17 -4 52 14 46 24 -4 6 -2 8 4 4 6 -3 14 0 19 7 4 7 27 25 51
39 23 13 39 28 35 33 -5 4 -2 5 4 1 7 -4 20 2 30 14 10 11 23 20 30 20 7 0 13
4 13 8 0 5 12 14 26 20 15 7 22 17 18 24 -5 7 -3 8 6 3 8 -5 17 -2 24 6 6 8
28 23 49 34 20 11 37 23 37 27 0 4 18 17 40 28 22 11 40 25 40 30 0 6 3 9 8 8
15 -3 61 25 55 35 -3 6 -1 7 5 3 7 -4 12 -2 12 3 0 6 7 11 15 11 8 0 15 5 15
10 0 6 7 10 16 10 9 0 14 6 11 13 -3 8 -1 20 5 28 8 11 9 10 4 -4 -4 -12 -2
-17 6 -14 7 2 12 9 11 15 -2 6 4 9 12 6 10 -4 14 -1 12 7 -2 8 -2 11 0 7 3 -5
9 -8 14 -8 6 0 7 5 3 12 -4 7 -3 8 4 4 6 -4 17 2 23 13 7 11 19 17 27 13 11
-4 13 -1 7 8 -5 9 -4 11 3 6 6 -4 17 2 24 14 7 11 17 20 21 20 15 0 68 41 63
49 -3 4 18 17 45 29 27 13 47 27 44 32 -4 6 2 7 11 3 13 -5 16 -3 11 10 -3 9
-1 19 5 23 7 4 8 3 4 -4 -8 -14 -4 -15 18 -6 9 3 13 10 10 16 -3 5 0 8 7 7 19
-4 81 36 71 45 -4 4 0 6 8 4 8 -2 14 3 12 10 -1 8 2 11 9 6 9 -5 10 -2 6 9 -3
9 -1 19 5 23 7 4 8 3 4 -4 -9 -15 19 -16 45 -1 19 10 20 11 3 23 -15 12 -15
13 7 11 13 -1 33 2 44 8 19 10 19 10 0 19 -19 8 -19 8 2 4 21 -4 129 61 145
87 4 7 13 12 20 12 7 1 12 7 10 14 -1 7 2 10 8 6 6 -4 37 13 68 37 31 23 60
43 65 44 4 1 10 2 15 3 4 1 0 6 -8 12 -12 8 -10 9 7 4 15 -4 26 0 36 15 7 11
16 18 18 15 3 -2 18 7 34 21 17 14 23 23 14 21 -9 -3 -16 1 -16 9 0 17 9 18
26 2 11 -10 14 -10 18 0 3 6 11 12 19 12 8 0 14 7 14 15 0 8 8 15 19 15 25 0
47 26 29 34 -7 3 -2 3 11 0 14 -4 21 -2 17 4 -3 5 2 16 11 23 12 10 14 10 9 2
-4 -8 -1 -13 9 -13 8 0 18 7 21 15 4 8 10 15 15 15 18 0 68 43 62 53 -3 6 -1
7 4 4 6 -4 22 2 34 13 14 11 18 19 11 20 -7 0 -10 5 -7 10 4 7 11 8 18 1 8 -6
16 -4 25 5 10 11 10 14 0 15 -7 0 -3 4 10 9 12 5 28 7 36 4 8 -3 19 3 25 14 6
11 22 23 36 26 16 4 23 11 19 18 -4 7 -3 8 4 4 7 -4 12 -3 12 1 0 5 16 17 35
27 19 11 35 23 35 28 0 4 4 8 10 8 17 0 84 51 102 78 10 15 18 21 18 14 0 -8
6 -12 13 -9 6 2 11 10 10 16 -2 6 3 11 11 11 7 0 31 14 52 31 22 17 56 42 77
56 33 21 37 26 26 41 -11 14 -11 15 1 5 17 -15 34 -17 25 -3 -4 6 1 7 12 3 15
-6 16 -4 6 9 -13 15 -8 28 11 28 6 0 5 -4 -3 -9z m59 -5 c-7 -7 -13 -7 -20 0
-6 6 -3 10 10 10 13 0 16 -4 10 -10z m-8210 -41 c0 -11 1 -722 1 -1580 1 -858
3 -1581 6 -1607 4 -41 8 -47 31 -51 21 -3 18 -4 -10 -6 l-38 -1 -2 1631 -3
1631 -760 -702 c-418 -387 -763 -708 -767 -714 -4 -6 -8 -1016 -8 -2243 l0
-2233 770 0 770 0 0 665 0 665 23 0 c20 -1 20 -2 4 -11 -16 -10 -17 -49 -17
-666 1 -360 -1 -658 -4 -660 -2 -3 -343 -4 -756 -3 -559 0 -756 -2 -766 -11
-11 -9 -14 -9 -14 0 0 7 -5 9 -10 6 -6 -4 -10 -3 -9 2 1 4 1 13 0 18 -1 11 0
4473 1 4492 1 7 5 10 9 7 4 -2 21 8 38 22 27 22 30 29 19 42 -11 13 -10 14 10
3 20 -11 26 -8 23 12 -1 5 2 6 6 4 14 -9 100 87 97 106 -2 15 0 16 12 6 11 -9
22 -2 58 34 24 25 47 43 50 40 3 -4 6 -1 6 6 0 6 12 24 28 38 15 14 26 29 25
34 -2 5 3 8 10 6 6 -1 11 5 9 13 -2 8 -1 12 3 8 7 -6 18 2 73 51 24 20 25 23
6 18 -12 -2 -21 1 -21 8 0 13 21 14 33 2 16 -16 26 -5 11 11 -12 13 -13 19 -5
20 19 2 62 9 67 11 2 0 -2 8 -9 16 -10 12 -8 13 11 10 18 -4 37 10 86 60 35
36 67 65 73 65 9 0 14 14 11 33 0 4 5 7 13 7 8 0 27 15 42 33 15 17 30 31 33
31 3 -1 5 2 4 7 -2 5 1 8 6 6 4 -1 38 25 73 58 36 33 97 89 136 125 63 58 93
94 60 74 -7 -4 -8 -3 -4 4 4 6 13 9 21 6 18 -7 109 82 92 90 -7 3 -3 4 8 3 12
-1 19 3 17 11 -1 8 1 11 6 8 11 -7 42 30 34 40 -4 4 -1 4 6 0 9 -6 36 14 82
60 37 38 86 86 109 107 22 21 41 44 41 52 0 13 3 13 20 3 11 -7 20 -22 20 -33z
m1792 18 c7 -6 21 -9 30 -8 10 2 15 -2 12 -9 -6 -16 18 -37 45 -39 12 -1 21
-8 21 -17 1 -15 75 -67 91 -62 5 1 8 -4 7 -10 -2 -7 3 -12 10 -10 8 1 11 -2 6
-9 -5 -8 -2 -10 9 -6 9 3 18 0 21 -8 3 -8 24 -26 46 -40 32 -20 45 -24 55 -15
11 10 13 8 10 -8 -5 -27 60 -80 72 -58 6 11 12 10 28 -6 20 -19 20 -19 0 -13
-17 6 -17 4 4 -14 13 -12 35 -24 50 -28 14 -3 34 -17 45 -30 10 -13 25 -22 32
-19 8 3 13 2 11 -3 -2 -9 92 -91 105 -91 4 0 19 -11 33 -24 14 -13 42 -32 61
-41 19 -9 38 -23 41 -31 3 -8 9 -14 15 -14 5 0 6 6 3 13 -4 6 1 3 10 -8 9 -11
20 -20 25 -20 6 0 11 -4 12 -10 2 -14 31 -34 40 -29 5 3 8 0 8 -5 0 -6 6 -11
14 -11 8 0 17 -7 20 -16 3 -8 10 -12 16 -9 5 3 10 1 10 -5 0 -6 6 -8 13 -4 6
4 9 4 5 -1 -4 -4 0 -14 10 -21 11 -8 19 -9 23 -2 4 6 10 1 14 -11 5 -16 12
-20 23 -16 9 3 13 3 9 -1 -4 -4 -2 -13 4 -21 13 -15 33 -18 24 -4 -3 5 -1 12
4 16 6 3 8 -3 6 -14 -5 -25 13 -39 47 -37 17 1 24 -2 19 -7 -5 -5 -7 -17 -3
-26 4 -13 3 -14 -9 -5 -8 6 -158 112 -334 234 -487 340 -639 445 -776 542 -69
48 -129 88 -133 88 -3 0 -6 -380 -6 -844 l0 -844 193 -134 c105 -74 446 -312
757 -528 706 -492 1066 -742 1335 -930 116 -80 283 -197 373 -260 115 -80 160
-115 150 -121 -9 -6 -20 -1 -33 16 -16 19 -24 22 -33 13 -9 -9 -11 -6 -7 11 3
17 0 21 -11 17 -9 -3 -12 -1 -9 4 3 6 -1 10 -9 10 -9 0 -16 5 -16 10 0 6 -5
10 -10 10 -6 0 -23 11 -37 24 -15 14 -31 22 -36 19 -6 -3 -7 -1 -3 5 3 6 -7
16 -24 24 -16 7 -30 17 -30 22 0 5 -10 1 -22 -10 -13 -10 -17 -12 -10 -4 16
18 15 30 -2 30 -8 0 -16 7 -20 15 -3 8 -9 15 -13 14 -21 -3 -34 2 -28 12 4 6
-2 13 -13 16 -11 3 -23 11 -26 19 -3 8 -12 14 -19 14 -8 0 -22 9 -32 20 -10
12 -25 18 -32 16 -7 -3 -12 0 -10 7 1 7 -4 11 -11 9 -8 -1 -11 2 -7 8 3 5 0
10 -8 10 -7 0 -23 9 -35 20 -12 11 -25 20 -29 20 -4 0 -23 14 -42 31 -21 18
-41 27 -50 24 -8 -3 -12 -3 -8 1 8 9 -84 75 -95 68 -5 -3 -7 -2 -6 3 2 4 0 9
-4 11 -4 2 -21 16 -39 32 -17 17 -35 27 -40 24 -5 -3 -9 0 -9 6 0 6 -4 9 -9 5
-5 -3 -12 -1 -16 5 -4 6 -11 7 -17 4 -7 -5 -9 -2 -6 8 7 17 -69 71 -90 63 -7
-2 -11 -1 -8 3 7 12 -5 25 -57 60 -27 18 -53 29 -59 26 -7 -4 -8 -2 -4 4 4 7
3 12 -2 12 -5 0 -21 11 -36 25 -15 14 -34 25 -42 25 -7 0 -14 5 -14 10 0 6
-11 15 -25 20 -14 5 -25 14 -25 20 0 6 -5 8 -12 4 -7 -4 -8 -3 -4 4 4 7 1 12
-6 12 -7 0 -24 9 -37 19 -14 10 -32 17 -40 14 -14 -4 -14 -4 -1 6 9 6 10 11 3
11 -6 0 -18 6 -25 13 -35 33 -86 65 -93 59 -5 -4 -5 -1 0 7 6 11 2 13 -21 7
-18 -4 -24 -3 -16 2 11 7 7 14 -17 31 -17 12 -31 20 -31 16 0 -6 -15 5 -50 37
-24 22 -63 43 -73 40 -5 -1 -6 2 -3 7 6 9 -31 27 -47 23 -5 -1 -6 2 -2 7 3 6
-3 14 -13 20 -10 5 -34 24 -52 41 -20 19 -39 29 -49 25 -8 -3 -12 -3 -8 1 5 6
-29 32 -102 79 -9 6 -18 12 -21 15 -16 16 -74 52 -86 54 -8 1 -31 18 -52 37
-46 44 -162 122 -182 122 -8 0 -25 13 -38 29 -13 15 -29 25 -34 21 -7 -3 -8
-1 -4 5 4 7 3 12 -2 12 -4 0 -17 8 -28 18 -41 37 -91 61 -105 49 -11 -10 -11
-9 0 5 10 14 9 17 -8 23 -10 3 -22 12 -25 20 -3 8 -12 15 -19 15 -8 0 -20 7
-27 15 -7 8 -17 12 -23 8 -6 -3 -7 -1 -3 5 4 7 2 12 -4 12 -6 0 -21 10 -33 21
-23 22 -86 54 -100 51 -5 -2 -6 2 -3 7 3 5 -5 18 -19 28 l-25 18 -3 856 -2
857 22 -3 c13 -1 28 -7 35 -12z m-1906 -49 c-9 -6 -13 -14 -9 -17 3 -4 1 -7
-5 -7 -6 0 -10 8 -9 18 0 10 9 18 20 18 16 0 16 -2 3 -12z m8305 -2921 c1
-1589 3 -2903 5 -2920 2 -18 -1 -33 -6 -33 -6 0 -10 4 -10 8 0 5 -19 8 -42 8
-24 0 -371 2 -773 4 l-730 5 770 5 770 5 0 2903 c0 1596 3 2902 8 2902 4 0 8
-1299 8 -2887z m-395 2755 c3 -4 -1 -5 -10 -4 -8 1 -18 5 -22 8 -3 4 1 5 10 4
8 -1 18 -5 22 -8z m3138 -57 c4 -5 6 -1265 6 -2800 0 -1982 3 -2792 11 -2796
6 -5 3 -12 -10 -22 -18 -12 -134 -14 -788 -13 -423 1 -773 2 -780 3 -8 0 -8 8
-2 25 5 14 9 1133 9 2800 0 1528 0 2785 0 2795 0 16 44 17 774 17 458 0 777
-4 780 -9z m1786 -16 c74 -10 153 -18 175 -19 22 0 42 -4 45 -8 3 -3 21 -11
40 -17 l35 -11 -35 6 c-349 55 -522 66 -948 62 l-333 -3 1 -639 c0 -352 2
-641 3 -642 1 -1 169 -4 372 -7 388 -5 486 -14 608 -56 196 -68 280 -177 280
-366 1 -124 -25 -189 -107 -271 -53 -53 -171 -125 -202 -124 -17 1 30 30 48
30 10 0 21 6 24 14 3 9 12 12 21 9 11 -4 14 -2 9 5 -4 7 -2 12 4 12 6 0 9 4 6
9 -4 5 4 7 16 3 16 -4 19 -2 13 8 -5 9 -4 11 3 6 13 -8 78 57 88 87 3 9 9 17
14 17 13 0 52 112 47 137 -2 12 0 20 4 17 11 -6 11 7 3 59 -5 24 -12 37 -23
38 -15 0 -15 1 0 7 17 7 18 40 2 77 -20 46 -49 85 -60 81 -8 -3 -10 1 -6 11 4
11 3 14 -6 9 -6 -4 -10 -4 -9 1 8 23 -133 113 -176 113 -10 0 -26 4 -36 10
-10 5 -35 12 -56 14 -22 3 -61 10 -89 16 -27 6 -216 13 -420 16 -203 3 -377 7
-385 9 -13 4 -15 83 -12 642 1 351 4 644 7 651 8 22 853 11 1035 -13z m443
-83 c37 -13 57 -15 57 -8 0 7 3 7 8 1 8 -11 78 -45 93 -45 6 0 36 -12 67 -27
31 -14 62 -26 69 -26 7 0 13 -5 13 -10 0 -5 9 -7 20 -4 11 3 18 2 15 -2 -2 -4
13 -18 34 -29 44 -25 55 -27 45 -9 -4 6 -4 9 0 5 4 -3 7 -9 6 -13 -2 -11 47
-45 64 -45 9 0 19 -7 22 -15 4 -8 18 -15 33 -15 22 -1 23 -2 9 -11 -13 -7 -29
-1 -70 24 -135 87 -326 170 -513 223 -73 21 -102 33 -75 30 25 -3 71 -14 103
-24z m-10788 8 c-3 -5 -12 -10 -18 -10 -7 0 -6 4 3 10 19 12 23 12 15 0z
m11373 -290 c12 -11 24 -20 27 -20 4 0 13 -7 22 -15 8 -8 19 -13 24 -9 5 3 8
1 7 -4 -2 -5 26 -31 60 -57 35 -27 66 -54 69 -62 3 -7 9 -13 15 -13 10 0 63
-53 87 -89 12 -16 18 -18 30 -8 10 8 13 8 8 0 -10 -16 3 -44 17 -36 6 3 8 3 4
-2 -11 -11 11 -47 26 -42 7 3 13 -4 14 -16 0 -12 7 -26 15 -32 7 -5 33 -40 56
-78 24 -37 47 -65 52 -62 5 4 6 -1 3 -10 -4 -9 0 -23 9 -33 22 -25 60 -104 64
-132 2 -14 -15 13 -39 60 -117 230 -293 438 -508 599 -103 77 -107 81 -94 81
6 0 20 -9 32 -20z m288 -203 c1 -9 -2 -15 -7 -11 -5 3 -7 9 -4 14 3 4 0 11 -5
13 -6 3 -5 4 1 3 7 -1 13 -10 15 -19z m-7156 3 c0 -5 -2 -10 -4 -10 -3 0 -8 5
-11 10 -3 6 -1 10 4 10 6 0 11 -4 11 -10z m-3828 -27 c1 -7 17 -20 73 -55 11
-7 25 -20 31 -28 10 -12 14 -12 30 0 17 13 18 13 7 -1 -11 -13 -6 -19 28 -40
22 -13 48 -31 57 -40 10 -9 31 -24 47 -35 17 -10 47 -31 68 -48 49 -37 107
-67 107 -54 0 5 5 6 10 3 6 -4 8 -10 5 -15 -5 -7 34 -40 103 -87 18 -13 35
-23 37 -23 2 0 16 -11 31 -25 18 -16 35 -24 48 -20 12 3 15 2 9 -1 -22 -10
-14 -22 21 -35 19 -7 32 -17 29 -23 -4 -5 1 -7 10 -3 10 4 16 2 14 -6 -1 -8
10 -11 32 -10 31 2 32 1 15 -13 -18 -15 -18 -15 4 -11 12 3 20 2 18 -2 -6 -8
31 -42 48 -45 6 -1 26 -16 45 -33 19 -18 38 -30 43 -27 4 3 8 0 8 -6 0 -7 7
-9 17 -6 10 4 15 4 11 1 -8 -8 23 -45 38 -45 6 0 19 -9 30 -21 10 -11 26 -18
36 -16 10 3 16 2 13 -2 -5 -9 40 -51 55 -51 6 0 10 -4 10 -10 0 -5 3 -9 8 -7
4 1 21 -10 37 -25 19 -18 37 -26 50 -23 11 3 14 2 8 -1 -20 -9 44 -57 64 -49
10 3 14 3 10 -1 -9 -9 29 -44 76 -69 20 -11 37 -23 37 -28 0 -4 5 -5 12 -1 7
4 8 3 4 -4 -4 -7 3 -14 19 -18 14 -3 30 -15 36 -25 5 -11 14 -17 20 -14 5 4 9
1 9 -4 0 -6 7 -11 15 -11 8 0 15 -4 15 -9 0 -9 57 -47 74 -48 10 -1 30 -32 24
-37 -1 -2 -131 86 -288 196 -157 109 -547 382 -868 605 -387 269 -579 409
-570 414 13 8 19 6 20 -8z m-18032 -126 c54 -25 147 -58 169 -60 10 0 17 -6
14 -12 -2 -7 15 -20 38 -30 86 -39 248 -230 254 -299 3 -38 9 -62 26 -101 17
-41 18 -114 1 -147 -7 -15 -15 -35 -17 -45 -2 -10 -8 -33 -14 -50 -5 -18 -7
-33 -5 -33 3 0 -11 -19 -30 -42 -20 -23 -36 -46 -36 -52 0 -6 -21 -27 -46 -45
-26 -19 -59 -47 -75 -62 -16 -15 -44 -30 -64 -33 -19 -4 -35 -11 -35 -17 0
-13 -48 -30 -85 -31 -16 0 -48 -5 -70 -10 -55 -15 -175 -19 -216 -8 -19 5 -63
11 -98 14 -44 3 -74 12 -100 29 -20 14 -52 30 -72 36 -20 6 -47 23 -59 36 -13
14 -29 25 -37 25 -7 0 -13 5 -13 11 0 6 -7 8 -16 5 -8 -3 -13 -2 -10 3 3 4
-24 38 -60 74 -57 58 -92 113 -100 156 -1 7 -13 24 -26 38 -21 23 -23 34 -25
153 -2 126 -2 130 23 160 14 16 27 36 28 42 7 33 30 75 53 100 14 14 26 30 26
35 1 4 5 7 10 6 4 -2 7 1 7 6 0 5 17 20 37 32 21 13 45 31 55 41 10 10 23 18
29 18 5 0 7 4 4 10 -3 5 0 7 8 4 8 -3 43 8 78 24 85 40 68 37 252 36 127 -1
170 -4 197 -17z m1833 4 c16 -6 31 -11 34 -11 4 0 14 -7 23 -15 9 -8 26 -16
38 -18 12 -2 25 -6 28 -10 4 -4 15 -7 24 -7 9 0 25 -9 35 -20 14 -16 20 -17
27 -8 6 10 8 8 8 -4 0 -10 4 -18 8 -18 7 0 43 -30 102 -84 36 -32 74 -79 89
-110 10 -18 26 -43 38 -55 12 -13 23 -43 28 -74 7 -57 8 -247 0 -287 -6 -32
-26 -70 -37 -70 -4 0 -8 -4 -8 -9 0 -18 -59 -95 -96 -126 -19 -16 -47 -40 -61
-52 -14 -13 -30 -24 -34 -24 -29 -4 -62 -21 -81 -40 -49 -50 -478 -51 -548 -1
-26 19 -56 33 -79 38 -8 1 -26 12 -40 24 -14 11 -38 26 -53 33 -16 6 -28 15
-28 19 0 4 -19 21 -42 38 -22 16 -38 30 -34 30 5 0 -13 23 -38 51 -25 28 -46
57 -46 64 0 17 -37 58 -47 52 -9 -6 -12 33 -12 212 0 130 8 165 48 210 17 20
19 27 8 39 -7 9 -7 13 -1 9 6 -3 22 6 36 21 40 44 117 113 124 111 4 0 11 6
16 15 5 9 16 16 23 16 8 0 15 5 15 11 0 5 5 7 10 4 6 -4 32 6 58 20 31 18 71
30 117 35 90 10 312 4 348 -9z m-453 -5 c0 -2 -7 -7 -16 -10 -8 -3 -12 -2 -9
4 6 10 25 14 25 6z m12340 -81 c0 -8 -4 -15 -10 -15 -5 0 -7 7 -4 15 4 8 8 15
10 15 2 0 4 -7 4 -15z m4651 -12 c13 -16 12 -17 -3 -4 -17 13 -22 21 -14 21 2
0 10 -8 17 -17z m-4806 -163 c-3 -5 -12 -10 -18 -10 -7 0 -6 4 3 10 19 12 23
12 15 0z m5089 1 c3 -5 -2 -15 -12 -22 -15 -12 -16 -12 -5 2 7 9 10 19 6 22
-3 4 -4 7 0 7 3 0 8 -4 11 -9z m10716 -186 c7 -24 16 -42 21 -39 5 3 6 -3 2
-12 -4 -11 -2 -15 4 -11 6 4 8 -3 5 -18 -2 -15 0 -25 7 -25 7 0 10 -4 7 -8 -3
-5 1 -29 9 -54 18 -60 24 -99 29 -178 3 -36 3 -51 0 -35 -17 109 -51 253 -79
332 -18 51 -30 93 -25 93 4 0 13 -20 20 -45z m-25490 -165 c0 -5 -2 -10 -4
-10 -3 0 -8 5 -11 10 -3 6 -1 10 4 10 6 0 11 -4 11 -10z m23837 -65 c0 -8 -4
-12 -9 -9 -5 3 -6 10 -3 15 9 13 12 11 12 -6z m-33207 -100 c0 -8 5 -15 12
-15 6 0 9 -3 5 -6 -3 -3 -14 -1 -24 5 -10 6 -13 11 -8 11 6 0 3 5 -5 10 -13 8
-12 10 3 10 9 0 17 -7 17 -15z m24917 -50 c0 -8 -4 -12 -9 -9 -4 3 -8 9 -8 15
0 5 4 9 8 9 5 0 9 -7 9 -15z m10033 -355 c-13 -123 -14 -127 -29 -163 -6 -16
-11 -34 -11 -40 0 -7 -7 -31 -15 -55 -9 -24 -12 -48 -9 -54 4 -7 2 -8 -4 -4
-11 6 -18 -27 -13 -56 0 -5 -3 -8 -8 -8 -5 0 -14 -15 -21 -32 -6 -18 -18 -45
-26 -60 -9 -16 -12 -28 -8 -28 3 0 1 -6 -5 -13 -6 -8 -8 -17 -4 -20 3 -4 2 -7
-4 -7 -14 0 -85 -120 -87 -147 0 -11 -4 -19 -8 -17 -4 3 -15 -7 -25 -21 -10
-15 -28 -39 -41 -55 -13 -16 -21 -34 -17 -40 3 -5 0 -8 -7 -5 -15 5 -82 -80
-74 -93 3 -6 0 -9 -7 -8 -6 0 -13 -3 -15 -9 -2 -5 -14 -16 -27 -23 -15 -7 -22
-18 -19 -27 4 -10 0 -15 -14 -15 -11 0 -46 -25 -78 -56 -32 -31 -67 -60 -76
-65 -10 -6 -16 -14 -13 -19 3 -6 -1 -7 -9 -4 -9 3 -19 -3 -26 -16 -6 -11 -16
-17 -22 -14 -7 5 -9 2 -5 -9 4 -12 2 -14 -10 -10 -12 5 -14 3 -8 -8 4 -8 4
-11 0 -6 -5 4 -16 0 -26 -9 -11 -10 -19 -12 -23 -5 -4 6 10 21 31 34 189 120
408 351 535 566 145 246 214 481 226 776 7 163 7 166 10 60 1 -60 -2 -157 -8
-215z m-24893 4 c-3 -3 -12 -4 -19 -1 -8 3 -5 6 6 6 11 1 17 -2 13 -5z m-5417
-108 c36 -8 78 -12 93 -10 19 2 25 -1 21 -8 -5 -8 -1 -9 10 -5 12 5 29 -2 52
-23 19 -16 44 -30 54 -30 11 0 34 -13 51 -30 17 -16 40 -32 50 -35 11 -4 19
-11 19 -16 0 -5 6 -9 14 -9 7 0 21 -11 30 -25 9 -14 22 -23 28 -19 6 4 8 3 4
-4 -3 -5 14 -30 39 -54 24 -23 45 -49 45 -56 0 -15 19 -49 41 -77 9 -11 21
-42 27 -70 12 -61 5 -232 -11 -261 -7 -12 -25 -47 -42 -79 -16 -32 -44 -69
-62 -82 -18 -14 -31 -28 -29 -32 3 -4 -12 -18 -32 -31 -20 -13 -46 -32 -57
-41 -11 -10 -51 -29 -89 -43 -38 -15 -76 -32 -84 -39 -11 -8 -66 -12 -191 -12
l-176 0 -67 33 c-37 17 -76 32 -88 32 -11 0 -20 5 -20 10 0 6 -7 10 -15 10 -8
0 -15 4 -15 10 0 11 -60 44 -60 33 0 -5 -7 0 -14 10 -8 10 -22 20 -30 21 -9 1
-16 5 -16 9 0 4 -8 16 -17 26 -10 10 -29 31 -42 45 -13 15 -30 25 -38 22 -8
-3 -11 -1 -8 4 8 12 -22 69 -47 89 -10 9 -20 23 -22 31 -2 8 -6 26 -9 40 -14
56 -25 199 -16 220 1 3 3 14 4 25 15 108 18 117 54 162 14 18 25 35 23 39 -2
3 7 14 20 24 20 17 21 21 8 31 -13 9 -13 10 2 5 11 -3 37 10 70 37 29 23 59
42 66 43 7 2 29 15 49 30 20 15 51 29 69 31 19 2 60 10 92 17 74 18 180 19
262 2z m3645 -61 c44 -14 86 -25 95 -24 29 3 37 -1 75 -31 21 -17 45 -28 52
-25 9 3 11 0 7 -6 -4 -7 -1 -10 7 -7 7 2 24 -6 37 -19 12 -13 27 -24 32 -24 6
-1 13 -2 18 -3 12 -2 117 -116 107 -116 -3 0 10 -14 29 -31 19 -16 33 -36 30
-43 -3 -7 9 -30 26 -51 16 -21 30 -46 30 -57 0 -12 4 -16 12 -12 6 4 8 3 5 -3
-3 -5 -7 -70 -8 -145 l-1 -135 -34 -43 c-18 -23 -31 -46 -29 -51 7 -10 -123
-149 -139 -149 -7 0 -27 -13 -46 -30 -19 -16 -45 -29 -58 -30 -12 0 -53 -14
-90 -31 -67 -30 -67 -30 -224 -28 -86 2 -155 6 -152 10 4 8 -97 49 -119 49 -7
0 -37 16 -67 35 -30 19 -60 35 -66 35 -6 0 -19 9 -30 21 -10 12 -31 27 -46 35
-16 8 -28 21 -28 29 0 8 -16 27 -36 42 -21 15 -43 41 -50 58 -7 16 -23 41 -36
55 -13 13 -24 28 -24 32 -1 5 -3 10 -4 13 -5 10 -7 22 -14 115 -9 107 6 242
29 275 9 11 29 40 45 65 16 25 43 56 59 68 17 12 31 29 31 38 0 8 5 12 10 9 6
-3 10 -2 10 3 0 8 36 23 43 19 1 -1 13 8 26 20 35 32 84 53 125 53 20 0 44 4
54 9 76 39 196 41 307 6z m24786 -51 c-85 -26 -207 -34 -552 -34 l-347 0 -3
-22 c-2 -13 -3 -305 -1 -650 l2 -628 363 -2 362 -3 -339 -2 c-218 -2 -342 -7
-346 -13 -9 -14 -33 -4 -48 20 -15 24 -19 1287 -4 1302 5 5 188 10 412 11 284
1 404 5 407 13 2 6 14 9 27 7 14 -3 32 0 43 6 10 6 29 10 43 10 18 -1 13 -5
-19 -15z m-10804 -142 c16 -9 22 -9 25 0 3 7 7 5 11 -6 4 -10 3 -15 -3 -11 -6
3 -10 2 -10 -2 0 -5 16 -17 35 -27 19 -11 35 -23 35 -28 0 -5 -26 9 -57 30
-32 21 -64 42 -70 46 -10 6 -13 -332 -13 -1673 l0 -1681 770 0 770 0 -2 1152
-3 1151 -590 408 c-324 225 -592 414 -594 421 -2 7 4 5 13 -5 10 -9 22 -15 26
-12 5 3 14 -4 20 -15 6 -11 15 -18 20 -15 5 3 15 -3 22 -12 14 -20 89 -73 102
-73 5 0 5 7 2 16 -3 9 -2 12 5 9 6 -4 8 -13 5 -20 -4 -11 130 -115 149 -115 6
0 22 -12 54 -40 9 -9 35 -27 56 -40 22 -13 56 -36 75 -52 19 -15 40 -28 46
-28 6 0 19 -9 29 -20 10 -11 20 -18 23 -15 3 3 12 -4 20 -16 8 -11 20 -18 28
-15 8 3 13 2 13 -2 -3 -19 2 -25 11 -12 8 13 10 12 10 -4 0 -11 3 -17 6 -14 3
3 22 -9 42 -28 20 -19 42 -32 49 -30 6 3 14 -2 17 -11 5 -12 9 -13 21 -3 12
10 14 8 10 -8 -3 -17 19 -38 33 -32 2 1 13 -10 25 -23 25 -28 67 -53 82 -48 5
1 7 -1 3 -4 -11 -11 73 -64 91 -58 13 4 13 3 2 -5 -10 -7 -10 -11 -1 -17 6 -4
14 -4 17 -1 4 3 12 -3 20 -14 8 -11 22 -20 32 -20 10 0 24 -7 31 -15 8 -10 9
-15 1 -15 -17 0 -16 -2257 1 -2278 8 -10 9 -13 2 -9 -7 4 -14 0 -17 -7 -3 -8
-2 -16 4 -18 5 -2 -338 -2 -763 -1 -789 2 -836 4 -808 38 7 9 10 566 8 1678
-3 1662 -3 1665 17 1662 11 -1 30 -7 42 -13z m199 -98 c1 -9 0 -13 -4 -10 -3
4 -7 14 -8 22 -1 9 0 13 4 10 3 -4 7 -14 8 -22z m-46 -9 c8 -7 25 -16 37 -19
13 -4 22 -10 22 -14 -3 -20 3 -23 18 -11 13 11 15 11 9 1 -6 -9 3 -24 25 -43
19 -17 -4 -4 -51 27 -47 32 -92 64 -100 71 -13 12 -12 13 5 7 11 -4 27 -13 35
-19z m4688 -182 c-1 -59 -3 -66 -5 -28 -2 28 -7 53 -11 57 -11 11 -82 -33
-101 -62 -15 -23 -15 -24 4 -16 16 6 17 5 8 -5 -10 -9 -15 -10 -27 0 -10 8
-16 9 -21 1 -3 -6 -11 -8 -16 -5 -5 4 -9 1 -9 -5 0 -6 -12 -15 -26 -20 -14 -6
-22 -14 -19 -20 4 -6 -1 -7 -12 -3 -16 6 -17 5 -3 -13 14 -17 14 -18 -1 -6
-13 10 -19 9 -29 -3 -7 -8 -19 -15 -27 -15 -7 0 -16 -7 -19 -15 -4 -8 -9 -13
-13 -10 -4 2 -19 -7 -34 -21 -14 -13 -30 -24 -34 -24 -4 0 -28 -18 -53 -40
-25 -22 -51 -40 -58 -40 -7 0 -10 -5 -7 -10 4 -6 3 -9 -2 -8 -17 5 -52 -14
-58 -31 -3 -10 -11 -18 -18 -18 -6 0 -21 -4 -32 -8 -11 -5 -17 -5 -13 0 7 7
629 442 636 444 1 1 1 -34 0 -76z m-1 -2320 c-1 -406 -2 -74 -2 737 0 811 1
1143 2 738 2 -406 2 -1070 0 -1475z m7355 1950 c-6 -2 -10 -9 -7 -14 4 -5 -1
-6 -10 -2 -13 5 -14 7 -3 14 7 5 18 8 23 8 6 0 4 -3 -3 -6z m-8006 -23 c0 -11
-5 -21 -11 -21 -5 -1 -15 -2 -20 -3 -19 -2 -113 -67 -119 -81 -3 -8 -13 -15
-23 -15 -16 0 -16 -2 -3 -11 13 -9 12 -10 -2 -5 -11 3 -44 -15 -91 -48 -40
-29 -81 -55 -90 -59 -10 -4 -16 -12 -15 -19 2 -7 -4 -13 -12 -14 -8 0 -21 -2
-27 -2 -7 -1 -13 -9 -13 -17 0 -8 -5 -15 -11 -15 -19 0 -168 -103 -163 -112 3
-4 -2 -5 -10 -2 -9 3 -21 -4 -31 -20 -11 -16 -22 -23 -32 -19 -11 4 -14 2 -9
-6 4 -6 4 -11 -1 -10 -21 4 -34 -2 -27 -13 4 -6 3 -9 -2 -5 -11 7 -50 -20 -41
-29 9 -10 -19 -34 -40 -34 -26 0 -47 -16 -39 -29 5 -7 1 -9 -8 -5 -9 3 -29 -4
-45 -17 -16 -13 -48 -35 -70 -48 -22 -14 -38 -27 -36 -31 2 -3 -5 -7 -16 -7
-10 -1 -19 0 -19 2 0 2 116 84 258 181 231 160 766 532 767 533 1 1 1 -8 1
-19z m34 6 c0 -3 -4 -8 -10 -11 -5 -3 -10 -1 -10 4 0 6 5 11 10 11 6 0 10 -2
10 -4z m-9491 -42 c2 -2 -10 -4 -27 -4 -28 0 -106 -69 -674 -596 -354 -328
-669 -622 -700 -653 -41 -39 -58 -50 -58 -38 0 10 8 20 18 24 18 6 86 73 74
73 -4 0 8 9 26 20 24 15 32 26 27 38 -3 9 -3 14 0 10 12 -11 58 21 127 88 37
37 68 71 68 75 0 4 9 11 20 14 12 4 17 11 14 18 -4 7 -4 9 1 5 4 -4 20 5 35
20 15 15 38 35 51 44 21 13 22 17 10 32 -9 10 -10 16 -2 16 6 0 11 -5 11 -10
0 -6 12 1 27 15 15 14 31 25 36 25 4 0 3 10 -3 23 -10 20 -10 20 3 5 15 -19
29 -14 21 6 -3 7 3 19 13 27 16 13 17 12 4 -4 -24 -31 -7 -27 31 8 21 18 39
42 41 54 2 12 10 27 17 34 12 10 12 9 2 -5 -7 -9 -9 -18 -5 -21 11 -7 83 60
75 68 -4 4 0 5 8 3 8 -2 14 3 13 9 -2 7 1 12 5 10 12 -4 102 89 94 98 -4 5 0
6 10 2 18 -6 92 66 80 78 -4 4 0 5 8 3 8 -1 14 3 13 10 -2 6 3 12 10 12 6 0
21 7 31 15 15 11 17 17 7 29 -9 11 -9 16 0 22 7 4 9 3 5 -4 -3 -6 -2 -13 4
-17 12 -8 112 84 104 96 -3 5 -2 8 3 7 17 -5 54 24 49 38 -3 8 -2 12 3 9 6 -3
29 13 53 35 24 22 47 40 51 40 5 0 5 5 2 10 -3 6 2 13 11 17 25 9 54 41 54 58
0 9 6 12 17 8 10 -4 14 -2 9 5 -4 7 5 9 31 5 21 -3 40 -7 42 -9z m4264 9 c-9
-3 -10 -10 -4 -22 6 -10 6 -23 0 -32 -6 -10 -9 -7 -9 14 0 23 -4 27 -27 28
l-28 1 30 8 c35 9 56 11 38 3z m2084 -8 c0 -8 -4 -12 -9 -9 -5 3 -6 10 -3 15
9 13 12 11 12 -6z m-5132 -17 c9 -14 11 -24 5 -26 -7 -3 -10 -203 -10 -629 1
-344 -3 -630 -7 -634 -5 -5 -590 -8 -1309 -6 l-1299 2 1303 3 1302 2 0 649 0
650 -32 4 -33 4 32 1 c23 2 36 -4 48 -20z m16059 -82 c-3 -8 -13 -17 -22 -21
-13 -5 -13 -2 3 15 21 24 26 25 19 6z m-128 -58 c5 -7 3 -8 -6 -3 -10 6 -12 4
-7 -8 4 -12 2 -14 -10 -10 -11 4 -14 2 -9 -5 4 -7 2 -10 -6 -7 -14 6 -98 -44
-98 -58 0 -4 5 -5 12 -1 7 4 8 3 4 -4 -4 -7 -14 -12 -22 -12 -8 0 -12 5 -9 10
3 6 1 10 -4 10 -6 0 -11 -5 -11 -12 0 -6 -3 -9 -6 -6 -3 4 -21 0 -39 -8 -68
-28 -48 -12 51 40 55 29 112 60 125 69 28 20 26 20 35 5z m-25698 -33 c-3 -3
-9 2 -12 12 -6 14 -5 15 5 6 7 -7 10 -15 7 -18z m16332 -59 c0 -2 -8 -10 -17
-17 -16 -13 -17 -12 -4 4 13 16 21 21 21 13z m9100 -46 c0 -5 -9 -10 -20 -10
-14 0 -18 -5 -14 -17 5 -15 4 -15 -4 -4 -9 13 -16 13 -49 -1 -52 -23 -155 -59
-173 -62 -51 -8 -89 -19 -86 -25 3 -4 -12 -5 -32 -2 -32 3 -22 8 73 31 61 15
151 43 200 63 104 40 105 40 105 27z m-22292 -33 c40 -15 103 -29 140 -33 43
-4 82 -15 110 -31 24 -13 63 -26 88 -29 29 -2 57 -13 74 -28 16 -13 48 -28 72
-34 25 -6 62 -25 83 -42 21 -16 43 -31 49 -32 6 0 16 -2 21 -2 6 -1 24 -11 40
-22 26 -18 58 -34 75 -38 20 -5 50 -29 45 -36 -3 -5 12 -21 35 -35 22 -14 40
-30 40 -37 0 -6 3 -9 6 -5 9 8 20 -2 160 -143 68 -68 124 -130 124 -136 0 -7
18 -34 40 -61 58 -69 57 -67 53 -80 -2 -6 9 -20 25 -32 27 -18 50 -76 43 -104
-1 -5 15 -34 34 -66 20 -32 35 -65 34 -72 -4 -29 14 -99 26 -99 7 0 16 -7 19
-16 8 -21 8 -503 0 -543 -4 -17 -12 -31 -19 -31 -12 0 -17 -17 -30 -100 -3
-19 -13 -46 -22 -60 -37 -56 -43 -73 -30 -89 9 -12 9 -13 0 -7 -8 4 -13 1 -13
-8 0 -9 -5 -16 -11 -16 -5 0 -8 -4 -5 -9 3 -4 -6 -23 -19 -41 -14 -19 -25 -42
-25 -52 0 -10 -5 -18 -10 -18 -6 0 -9 -5 -8 -12 2 -6 -11 -21 -29 -32 -18 -12
-39 -36 -48 -54 -9 -18 -25 -38 -36 -45 -24 -14 -80 -94 -71 -100 4 -2 1 -2
-6 -1 -7 2 -15 -3 -18 -11 -4 -8 -11 -12 -17 -8 -6 4 -8 0 -4 -11 4 -9 3 -15
-2 -12 -4 3 -23 -11 -42 -30 -19 -19 -51 -46 -71 -60 -21 -13 -38 -29 -38 -35
0 -5 6 -7 13 -3 7 4 9 3 4 -2 -5 -5 -12 -9 -15 -9 -17 0 -72 -28 -72 -37 0 -5
5 -6 12 -2 7 4 8 3 4 -5 -4 -6 -12 -9 -17 -5 -6 3 -18 -1 -27 -9 -9 -8 -34
-22 -54 -32 -21 -9 -35 -21 -33 -26 3 -4 -14 -14 -37 -20 -24 -7 -60 -27 -81
-45 -23 -19 -45 -30 -56 -27 -10 3 -22 0 -25 -6 -4 -6 -14 -11 -22 -11 -9 0
-30 -11 -49 -25 -18 -14 -55 -29 -82 -34 -26 -4 -69 -19 -95 -33 -25 -15 -48
-24 -51 -22 -2 3 -24 0 -48 -6 -24 -6 -52 -11 -62 -11 -9 0 -45 -10 -80 -23
-71 -25 -169 -32 -467 -30 -368 3 -400 5 -459 31 -30 13 -92 30 -138 37 -46 7
-91 20 -101 28 -25 21 -70 38 -85 32 -8 -3 -45 12 -83 32 -38 20 -79 37 -92
39 -12 1 -33 12 -45 23 -12 11 -43 30 -69 41 -27 11 -48 25 -48 32 0 6 -7 8
-16 5 -8 -3 -12 -2 -9 4 3 5 -17 19 -45 31 -27 12 -50 25 -50 30 0 5 -11 14
-24 21 -43 23 -216 183 -279 257 -20 25 -37 39 -37 32 0 -7 -5 -9 -11 -5 -8 4
-7 9 2 14 9 6 4 18 -19 45 -18 19 -32 40 -32 45 0 4 -14 22 -31 39 -16 17 -33
43 -35 58 -3 16 -9 30 -15 31 -5 2 -9 9 -9 15 0 6 -11 23 -25 37 -16 17 -27
43 -31 71 -3 24 -19 71 -36 104 -31 61 -33 74 -53 330 -8 101 18 385 39 423
33 58 46 92 48 121 1 17 6 31 10 31 4 0 8 7 8 16 0 8 11 30 25 49 14 18 25 37
24 41 -4 16 19 59 48 89 15 17 37 47 47 67 10 21 22 35 26 33 4 -3 15 6 24 20
9 14 14 25 10 25 -4 0 6 10 22 22 16 12 35 31 43 42 26 36 122 126 133 126 6
0 8 3 5 6 -4 4 13 19 38 35 24 15 50 37 56 48 7 10 18 17 25 14 7 -2 28 12 48
31 19 20 38 36 43 35 19 -3 32 3 68 31 21 17 55 35 77 42 22 6 45 19 51 28 7
9 35 22 62 29 28 7 64 21 80 31 17 10 47 21 67 25 21 4 36 11 33 15 -3 5 4 6
15 3 11 -3 36 5 56 17 25 14 67 25 123 31 82 9 174 32 196 50 17 13 120 16
435 14 291 -2 296 -2 368 -28z m-5846 -54 c9 -8 22 -12 29 -7 8 5 10 3 4 -6
-6 -10 -4 -12 9 -7 9 4 15 3 12 -2 -6 -9 63 -33 74 -26 4 3 19 -6 33 -19 15
-14 37 -28 49 -31 22 -7 63 -42 133 -113 71 -72 95 -104 105 -144 7 -24 22
-53 33 -66 20 -21 22 -36 24 -155 1 -120 0 -134 -18 -153 -11 -12 -21 -28 -23
-35 -5 -30 -40 -90 -57 -100 -11 -5 -19 -16 -19 -24 0 -8 -4 -15 -8 -15 -5 0
-28 -18 -52 -40 -23 -21 -57 -44 -75 -50 -19 -6 -39 -18 -46 -26 -20 -25 -61
-42 -114 -47 -27 -3 -75 -13 -105 -21 -56 -16 -134 -14 -197 5 -31 10 -41 12
-118 23 -75 10 -214 90 -291 167 -16 16 -39 31 -49 33 -11 2 -20 9 -21 17 -2
31 -5 37 -32 65 -31 33 -43 56 -49 94 -2 14 -15 57 -29 96 -28 81 -29 104 -8
159 9 22 22 64 29 94 9 35 25 66 46 87 18 19 29 34 24 34 -4 0 -1 8 8 18 10
10 14 22 10 27 -5 4 -3 5 4 1 7 -4 30 13 56 39 24 24 47 42 51 38 3 -4 12 1
19 10 6 8 39 25 72 36 33 12 71 30 85 40 23 18 43 19 205 19 147 0 183 -2 197
-15z m1806 2 c10 -16 81 -47 92 -40 13 8 100 -31 100 -44 0 -6 12 -14 28 -17
29 -7 120 -79 161 -128 14 -15 31 -34 39 -42 7 -8 10 -14 6 -14 -4 0 4 -12 18
-27 28 -32 39 -55 43 -97 2 -15 13 -42 25 -58 18 -25 23 -46 26 -114 1 -46 -1
-84 -5 -84 -11 0 -41 -70 -43 -102 -1 -16 -6 -28 -10 -28 -4 0 -8 -5 -8 -10 0
-6 -16 -26 -35 -46 -19 -19 -35 -40 -36 -47 0 -7 -19 -26 -42 -43 -23 -17 -41
-36 -40 -42 2 -6 -4 -9 -11 -6 -8 3 -23 -3 -34 -13 -10 -10 -25 -19 -33 -21
-8 -2 -22 -10 -31 -19 -9 -8 -41 -17 -69 -20 -29 -3 -79 -14 -112 -24 -70 -22
-164 -25 -210 -5 -18 7 -63 16 -100 20 -47 5 -78 15 -104 33 -21 14 -54 33
-73 42 -36 16 -42 20 -94 66 -16 13 -33 22 -39 18 -5 -3 -7 -1 -3 5 3 6 -14
27 -39 47 -24 20 -44 40 -44 43 3 20 -3 31 -20 37 -20 6 -41 46 -44 83 -1 12
-5 22 -10 22 -4 0 -6 4 -3 9 3 4 -3 16 -14 26 -11 10 -20 31 -20 46 0 15 -3
30 -7 32 -5 3 -6 41 -3 84 4 65 10 87 32 119 15 21 28 52 30 69 2 16 15 43 30
59 15 15 25 33 22 38 -3 4 0 7 8 6 7 -2 12 3 10 10 -1 8 1 11 6 8 5 -3 19 8
31 24 12 17 27 30 34 30 7 0 28 13 47 29 19 15 46 31 60 35 14 4 45 17 70 29
25 12 54 25 65 29 34 12 345 6 353 -7z m-5677 -11 c57 -8 118 -17 134 -20 28
-4 71 -8 207 -19 31 -2 82 -16 113 -30 32 -14 84 -27 118 -30 33 -3 68 -11 76
-19 24 -21 78 -46 84 -39 8 7 73 -23 106 -48 13 -11 42 -24 65 -30 22 -6 53
-22 69 -35 16 -13 37 -24 47 -24 11 0 33 -13 50 -30 17 -16 35 -30 41 -30 6 0
23 -9 39 -20 15 -11 31 -16 35 -12 5 4 5 2 1 -5 -4 -7 3 -17 16 -24 13 -7 37
-25 53 -42 17 -16 44 -35 60 -42 34 -15 102 -87 116 -122 5 -15 14 -21 21 -17
7 4 8 3 4 -4 -4 -6 5 -19 19 -28 14 -9 25 -20 25 -26 0 -5 4 -14 10 -21 38
-46 59 -77 76 -107 10 -19 31 -51 45 -70 14 -19 31 -55 38 -80 7 -25 22 -55
33 -66 12 -14 21 -42 25 -78 3 -31 12 -61 19 -67 7 -6 11 -16 8 -24 -3 -7 5
-33 18 -57 22 -41 23 -53 23 -248 0 -216 -1 -223 -35 -289 -12 -24 -18 -50
-15 -62 4 -11 2 -19 -4 -19 -6 0 -11 -12 -11 -27 -1 -35 -26 -107 -39 -111 -5
-2 -17 -27 -27 -55 -9 -29 -26 -63 -38 -77 -28 -33 -46 -66 -46 -84 0 -8 -11
-23 -25 -34 -13 -10 -25 -25 -27 -33 -2 -8 -20 -30 -40 -50 -21 -20 -38 -41
-38 -46 0 -6 -31 -40 -69 -76 -38 -36 -67 -68 -64 -70 2 -3 -8 -13 -24 -23
-57 -36 -74 -56 -60 -73 10 -14 10 -14 -5 -3 -19 15 -42 7 -72 -27 -11 -12
-27 -21 -36 -21 -9 0 -31 -16 -50 -35 -19 -19 -42 -35 -51 -35 -10 0 -30 -11
-46 -24 -33 -27 -67 -46 -92 -51 -9 -2 -35 -15 -56 -29 -21 -14 -49 -26 -62
-26 -31 0 -85 -23 -102 -43 -8 -11 -28 -17 -53 -17 -21 0 -55 -7 -76 -16 -20
-8 -39 -16 -42 -16 -3 -1 -18 -7 -35 -14 -16 -6 -92 -19 -169 -28 -76 -8 -145
-21 -153 -28 -11 -8 -74 -12 -221 -12 -168 -1 -218 2 -267 17 -33 9 -116 22
-185 28 -85 7 -130 16 -142 26 -9 8 -22 12 -27 8 -6 -3 -11 -1 -11 6 0 7 -3 9
-6 6 -4 -3 -14 -2 -23 2 -9 5 -32 12 -52 15 -46 7 -84 22 -118 44 -14 10 -35
19 -46 20 -43 4 -58 9 -89 34 -18 15 -51 31 -72 37 -22 6 -50 20 -62 31 -26
24 -70 42 -83 34 -5 -3 -8 -1 -7 4 3 10 -65 62 -80 62 -4 0 -22 15 -40 33 -17
17 -47 45 -66 61 -19 15 -46 39 -60 52 -14 13 -33 21 -41 18 -8 -4 -15 -1 -15
6 0 6 5 8 11 4 7 -4 10 -1 7 7 -3 8 -12 13 -21 13 -9 -1 -15 2 -14 7 1 4 -24
36 -55 71 -99 109 -104 115 -118 149 -8 17 -26 45 -41 60 -16 16 -31 45 -35
64 -5 26 -11 35 -21 31 -8 -3 -11 -2 -8 4 3 5 -4 24 -15 42 -11 18 -20 42 -20
53 0 11 -7 31 -16 43 -8 12 -12 22 -9 22 3 0 -5 19 -19 43 -37 63 -50 212 -42
469 6 190 16 268 35 268 11 0 29 65 36 124 4 40 12 56 40 82 22 20 35 41 35
56 0 15 16 43 39 69 35 41 58 83 53 102 -1 4 5 7 13 7 8 0 26 17 39 38 13 20
35 48 49 61 15 13 24 29 20 35 -3 6 -3 8 1 4 4 -3 34 20 66 52 33 32 61 56 63
54 2 -3 21 14 41 36 20 22 36 37 36 34 0 -3 19 11 42 30 23 20 47 36 54 36 7
0 24 14 37 30 15 18 35 30 49 30 14 0 37 13 53 30 16 17 39 30 50 30 12 0 39
11 59 25 52 35 93 55 99 49 9 -9 45 6 75 30 17 15 47 25 83 29 65 8 123 29
112 42 -5 4 -2 5 5 1 7 -4 19 -3 26 3 7 6 64 15 127 21 63 5 141 14 174 21
159 30 255 33 386 13z m23451 -202 c53 -36 95 -68 92 -71 -9 -9 -34 -9 -28 0
3 5 -2 9 -11 9 -9 0 -13 4 -10 10 3 5 -7 16 -22 22 -15 7 -34 18 -41 25 -8 7
-18 11 -23 8 -5 -4 -9 1 -9 9 0 9 -7 16 -15 16 -8 0 -20 9 -27 20 -7 11 -17
20 -21 20 -5 0 -26 13 -47 30 -20 16 -41 26 -45 22 -5 -4 -5 -2 -1 5 4 7 -3
14 -16 19 -23 7 -48 28 -48 39 0 4 39 -21 88 -55 48 -34 131 -91 184 -128z
m533 168 c3 -5 1 -10 -4 -10 -6 0 -11 5 -11 10 0 6 2 10 4 10 3 0 8 -4 11 -10z
m7595 0 c-8 -5 -33 -9 -55 -9 -39 1 -39 2 -10 9 17 4 41 8 55 9 20 0 22 -1 10
-9z m-135 -21 c-22 -5 -69 -11 -105 -14 -36 -3 -79 -8 -97 -11 -17 -2 -34 0
-38 6 -4 6 15 10 52 11 32 0 81 4 108 9 28 4 66 7 85 8 l35 0 -40 -9z m-290
-24 c-23 -8 -125 -11 -125 -3 0 4 30 8 68 7 37 0 63 -2 57 -4z m-17158 -491
c0 -7 -5 -15 -12 -17 -6 -3 -11 3 -11 12 0 10 5 18 11 18 7 0 12 -6 12 -13z
m5390 -266 c-3 -8 -6 -5 -6 6 -1 11 2 17 5 13 3 -3 4 -12 1 -19z m7 -88 c-1
-3 -168 -3 -371 0 l-368 5 363 3 362 2 1 28 1 27 7 -30 c4 -16 6 -32 5 -35z
m-5677 4 c-3 -3 -12 -4 -19 -1 -8 3 -5 6 6 6 11 1 17 -2 13 -5z m-2720 -1196
c-3 -8 -6 -5 -6 6 -1 11 2 17 5 13 3 -3 4 -12 1 -19z m-5952 -117 c33 -13 71
-24 85 -26 102 -12 162 -27 203 -50 41 -23 50 -25 64 -14 9 8 14 9 10 3 -4 -8
6 -14 28 -18 19 -4 48 -18 64 -31 16 -14 42 -26 57 -27 16 -1 43 -11 59 -23
32 -23 139 -75 155 -75 6 0 10 -5 10 -10 0 -6 12 -16 27 -23 15 -6 39 -24 54
-39 14 -16 33 -28 41 -28 8 0 26 -12 41 -27 14 -16 44 -44 67 -63 22 -19 76
-69 119 -110 43 -41 90 -86 105 -99 15 -13 24 -26 22 -29 -3 -3 6 -18 20 -35
14 -16 28 -42 31 -57 3 -16 20 -43 39 -62 18 -18 34 -43 34 -55 0 -12 7 -28
15 -36 8 -8 11 -18 7 -22 -4 -3 0 -12 9 -18 16 -12 44 -58 42 -68 -1 -3 3 -23
8 -45 5 -21 12 -50 15 -64 3 -14 12 -32 20 -41 44 -49 44 -569 0 -618 -8 -9
-17 -27 -20 -41 -30 -135 -35 -153 -55 -166 -12 -8 -21 -24 -21 -34 0 -10 -5
-22 -11 -25 -6 -4 -8 -13 -5 -20 2 -7 -10 -30 -28 -52 -18 -21 -36 -48 -40
-61 -9 -28 -104 -145 -193 -237 -24 -25 -29 -36 -20 -45 7 -8 7 -10 1 -7 -6 3
-25 -3 -42 -13 -29 -18 -37 -30 -33 -52 0 -4 -7 -4 -16 -1 -12 5 -14 3 -8 -7
6 -10 4 -12 -7 -7 -10 3 -24 -3 -35 -15 -10 -11 -35 -31 -56 -45 -21 -13 -35
-28 -32 -34 4 -5 3 -9 -2 -7 -15 3 -78 -29 -97 -51 -11 -11 -25 -21 -33 -21
-7 0 -13 -5 -13 -11 0 -5 -4 -8 -9 -5 -5 3 -31 -9 -58 -28 -27 -18 -64 -37
-82 -41 -18 -4 -42 -16 -53 -27 -10 -10 -49 -26 -86 -35 -37 -9 -74 -22 -82
-28 -20 -17 -42 -23 -128 -35 -40 -5 -83 -16 -95 -24 -30 -20 -120 -35 -262
-44 -88 -5 -119 -10 -117 -19 1 -10 -32 -13 -143 -13 -118 0 -146 3 -152 15
-7 12 -37 17 -133 21 -132 6 -159 11 -255 43 -33 11 -87 25 -119 30 -33 6 -69
19 -80 30 -12 10 -39 21 -61 24 -53 8 -75 16 -108 44 -16 13 -38 23 -50 24
-12 0 -35 9 -52 20 -16 10 -54 30 -83 44 -29 15 -55 32 -58 40 -3 8 -16 17
-27 21 -12 4 -38 21 -58 38 -46 39 -131 92 -142 88 -5 -1 -6 1 -3 6 8 14 -40
52 -53 41 -6 -5 -9 -6 -6 -3 3 4 0 13 -6 21 -6 7 -8 13 -4 13 5 0 0 9 -10 20
-10 11 -22 17 -26 14 -5 -3 -9 2 -9 10 0 9 -6 15 -12 14 -7 -2 -12 2 -11 8 1
7 -13 29 -33 49 -19 20 -41 50 -49 65 -8 16 -23 31 -34 35 -12 3 -21 19 -26
42 -3 19 -19 47 -34 62 -15 14 -36 49 -46 76 -10 28 -29 63 -42 78 -12 16 -23
42 -23 58 0 16 -12 58 -26 92 -15 34 -31 73 -37 87 -14 36 -21 379 -9 487 8
67 17 100 32 121 12 16 26 59 33 99 7 39 19 79 28 90 23 25 47 76 43 88 -2 6
8 24 23 41 37 40 66 84 59 91 -3 3 10 21 29 39 19 19 35 38 35 43 0 5 52 62
115 126 63 64 112 122 108 127 -3 6 -1 8 4 5 6 -4 28 7 49 24 22 17 55 39 74
49 19 10 41 28 48 39 7 12 21 21 32 21 11 0 34 14 52 30 17 17 34 30 37 31 29
3 48 11 89 37 26 17 66 35 89 41 23 7 55 23 72 37 16 13 33 23 38 22 24 -6
109 17 140 38 22 14 50 24 72 24 20 0 79 12 131 26 144 39 180 42 510 40 288
-3 308 -4 365 -25z m5786 -74 c-10 -9 -11 -8 -5 6 3 10 9 15 12 12 3 -3 0 -11
-7 -18z m-194 -210 c0 -8 -6 -14 -14 -14 -17 0 -17 14 0 20 6 3 12 6 13 6 0 1
1 -5 1 -12z m-4642 -125 c-3 -3 -11 0 -18 7 -9 10 -8 11 6 5 10 -3 15 -9 12
-12z m-7285 -108 c0 -2 -7 -4 -15 -4 -8 0 -15 4 -15 10 0 5 7 7 15 4 8 -4 15
-8 15 -10z m4143 -379 c-3 -9 -8 -14 -10 -11 -3 3 -2 9 2 15 9 16 15 13 8 -4z
m417 -1716 c0 -5 -7 -9 -15 -9 -15 0 -20 12 -9 23 8 8 24 -1 24 -14z"/>
<path d="M6649 12618 c-48 -4 -105 -12 -128 -18 -22 -5 -60 -15 -83 -20 -23
-6 -76 -15 -117 -20 -44 -6 -96 -20 -122 -34 -26 -13 -66 -27 -90 -31 -24 -4
-57 -17 -72 -28 -16 -11 -54 -27 -84 -37 -30 -9 -63 -24 -74 -34 -11 -9 -39
-24 -62 -33 -23 -9 -52 -25 -65 -36 -12 -12 -30 -22 -39 -23 -9 -2 -27 -11
-39 -21 -12 -10 -55 -44 -96 -75 -107 -83 -216 -189 -227 -221 -7 -17 -22 -32
-40 -38 -22 -8 -31 -20 -41 -55 -7 -24 -17 -44 -23 -44 -13 0 -47 -40 -47 -56
0 -8 -16 -34 -35 -59 -19 -25 -37 -62 -41 -82 -4 -20 -19 -57 -35 -82 -16 -27
-30 -66 -33 -96 -7 -68 -22 -144 -36 -179 -17 -45 -23 -172 -12 -256 25 -188
79 -390 104 -390 4 0 8 -9 8 -20 0 -30 26 -87 55 -122 14 -16 25 -37 25 -47 0
-10 13 -33 30 -52 16 -19 47 -58 68 -87 69 -93 288 -302 317 -302 7 0 22 -11
35 -25 13 -14 27 -25 31 -25 5 0 36 -18 70 -40 34 -22 70 -40 80 -40 10 0 24
-6 31 -13 25 -25 63 -45 99 -51 20 -4 46 -15 59 -26 12 -10 52 -26 88 -34 37
-8 94 -26 128 -40 33 -13 87 -27 120 -31 32 -4 95 -15 139 -25 188 -45 521
-47 675 -5 30 9 96 20 145 25 87 9 165 30 189 50 7 5 44 16 84 25 40 9 78 23
86 30 7 8 39 21 70 30 31 9 69 27 85 41 16 13 34 24 40 24 7 0 23 7 36 16 14
9 25 13 25 8 0 -5 7 2 16 14 8 12 23 22 34 22 10 0 38 16 62 35 23 19 48 38
53 43 69 50 144 115 213 183 87 86 112 115 112 131 0 9 11 23 24 31 13 9 34
38 46 64 13 26 33 59 44 73 12 14 28 43 36 65 7 22 23 56 36 75 12 19 28 63
34 96 6 34 23 95 37 135 26 70 27 85 28 249 0 172 -5 206 -43 300 -6 17 -9 29
-17 85 -8 51 -23 91 -51 133 -13 18 -26 47 -30 65 -3 17 -22 50 -40 71 -19 22
-34 45 -34 52 0 12 -22 41 -117 154 -32 38 -130 131 -216 205 -35 30 -117 88
-146 104 -14 8 -39 25 -54 38 -16 12 -36 23 -45 23 -10 0 -39 16 -66 35 -27
19 -58 35 -67 35 -22 0 -89 31 -89 41 0 4 -26 13 -57 19 -32 7 -87 24 -123 40
-38 16 -94 30 -135 34 -38 4 -99 15 -135 26 -131 38 -349 48 -591 28z m439
-682 c85 -12 128 -24 170 -46 31 -16 66 -30 77 -30 11 0 40 -14 65 -30 25 -16
50 -30 55 -30 29 0 255 -197 255 -222 0 -4 15 -24 33 -44 30 -35 50 -67 96
-159 30 -61 41 -210 27 -365 -10 -105 -12 -113 -41 -146 -14 -16 -30 -46 -37
-66 -6 -20 -26 -51 -44 -69 -19 -18 -34 -38 -34 -43 -1 -28 -206 -198 -278
-231 -18 -8 -45 -23 -60 -33 -15 -11 -43 -23 -62 -27 -19 -4 -55 -18 -80 -31
-54 -28 -230 -54 -376 -55 -133 0 -315 25 -370 52 -25 11 -62 23 -84 26 -21 3
-48 14 -58 23 -11 10 -38 28 -61 40 -92 47 -245 181 -302 264 -17 26 -38 50
-45 53 -8 3 -14 12 -14 20 0 8 -18 53 -41 99 l-41 84 1 156 c0 159 8 209 42
252 10 13 23 40 30 60 6 20 25 52 40 70 16 18 29 37 29 42 0 13 147 158 190
187 19 13 49 34 67 46 72 49 120 75 168 87 28 8 61 22 75 31 36 26 270 58 395
55 55 -2 151 -11 213 -20z"/>
<path d="M11325 10465 c-186 -13 -219 -18 -270 -40 -16 -7 -68 -21 -115 -31
-47 -9 -95 -25 -108 -34 -12 -10 -46 -24 -75 -30 -28 -7 -66 -23 -83 -35 -16
-13 -49 -29 -72 -36 -23 -6 -50 -20 -61 -30 -11 -10 -38 -26 -61 -35 -22 -9
-46 -24 -53 -34 -6 -9 -23 -23 -36 -29 -47 -25 -169 -122 -209 -165 -9 -10
-35 -38 -57 -61 -99 -106 -113 -122 -128 -151 -9 -17 -23 -37 -32 -44 -18 -15
-56 -85 -50 -92 2 -2 -7 -17 -21 -33 -13 -16 -31 -52 -40 -81 -8 -29 -28 -77
-44 -106 -17 -29 -30 -68 -30 -88 0 -19 -10 -104 -21 -190 -20 -146 -21 -159
-6 -225 9 -38 19 -108 23 -155 6 -82 13 -104 53 -180 11 -19 22 -52 25 -72 3
-20 17 -49 30 -65 14 -16 32 -48 42 -71 9 -23 26 -50 38 -60 12 -9 28 -31 35
-49 13 -32 206 -236 269 -283 18 -14 49 -40 70 -57 20 -18 51 -40 69 -48 18
-9 38 -24 45 -34 8 -11 31 -22 52 -26 20 -4 45 -15 54 -25 20 -21 75 -50 95
-50 8 0 24 -9 37 -20 13 -11 49 -27 79 -36 31 -8 79 -26 106 -39 28 -12 77
-26 110 -30 33 -3 83 -15 110 -25 83 -31 141 -38 355 -45 262 -8 511 6 600 34
36 12 102 28 148 36 46 9 95 24 110 34 15 11 52 25 82 31 30 7 66 20 80 30 14
9 48 25 75 35 28 10 59 26 70 36 11 9 37 24 58 33 22 9 52 27 69 41 16 14 35
25 42 25 6 0 26 12 43 28 17 15 52 43 78 62 49 36 225 209 225 222 0 3 20 30
45 59 25 29 45 58 45 64 0 7 13 25 28 41 15 16 36 55 46 87 10 31 22 57 27 57
15 0 43 63 46 105 2 22 14 63 28 92 36 72 45 141 45 333 0 190 -8 254 -43 330
-13 30 -28 76 -31 102 -4 27 -17 60 -30 75 -32 39 -43 64 -40 94 2 21 -4 29
-31 42 -26 12 -37 27 -49 65 -10 28 -24 53 -31 56 -8 3 -23 18 -32 34 -50 81
-288 296 -363 329 -15 6 -31 16 -35 23 -4 6 -30 21 -58 34 -29 13 -63 33 -76
45 -13 11 -33 21 -44 21 -11 0 -43 13 -71 29 -28 16 -65 31 -81 34 -17 2 -60
18 -95 35 -36 16 -91 32 -123 36 -32 3 -77 14 -100 25 -61 27 -85 31 -236 41
-245 17 -363 18 -546 5z m561 -667 c33 -14 81 -28 107 -32 25 -4 61 -17 79
-30 19 -12 48 -27 65 -33 108 -38 331 -244 388 -358 11 -22 28 -49 38 -59 9
-11 17 -31 17 -45 0 -14 9 -64 20 -111 11 -47 20 -103 20 -125 0 -59 -49 -265
-67 -284 -9 -8 -25 -36 -36 -61 -11 -25 -34 -62 -51 -84 -69 -86 -224 -226
-252 -226 -7 0 -25 -11 -41 -24 -15 -13 -46 -29 -68 -36 -22 -7 -56 -22 -75
-35 -20 -13 -65 -27 -105 -33 -39 -7 -99 -21 -135 -32 -90 -29 -305 -29 -405
0 -38 11 -96 25 -128 31 -32 5 -84 23 -114 39 -31 17 -64 30 -74 30 -9 0 -30
11 -46 24 -15 13 -46 33 -68 45 -22 12 -56 34 -75 49 -51 39 -165 162 -183
197 -8 17 -24 39 -36 49 -12 11 -21 29 -21 42 0 12 -13 48 -30 79 -38 71 -51
153 -44 269 4 73 11 103 35 151 16 34 32 75 35 92 3 18 14 40 23 50 9 10 27
35 40 56 13 22 33 49 45 61 12 12 30 33 41 47 28 34 140 129 154 129 5 0 26
14 44 30 19 17 40 30 46 30 10 0 55 23 104 54 12 8 42 17 66 20 24 4 57 14 75
23 64 35 134 43 346 40 193 -3 208 -5 266 -29z"/>
<path d="M2040 10319 c-52 -4 -129 -16 -170 -28 -41 -11 -113 -25 -160 -31
-47 -7 -89 -15 -95 -19 -17 -13 -98 -40 -155 -52 -30 -6 -62 -20 -71 -30 -9
-10 -19 -16 -23 -12 -3 3 -6 1 -6 -6 0 -7 -6 -11 -13 -8 -15 6 -92 -26 -117
-47 -8 -7 -26 -16 -40 -19 -14 -3 -40 -19 -59 -34 -18 -15 -45 -28 -59 -28
-18 -1 -31 -10 -42 -30 -9 -17 -30 -34 -47 -40 -16 -5 -47 -25 -69 -43 -21
-18 -54 -45 -72 -60 -42 -35 -48 -41 -105 -104 -85 -94 -177 -216 -177 -234 0
-27 -34 -82 -56 -93 -13 -6 -24 -14 -25 -18 0 -5 -2 -30 -4 -56 -1 -26 -9 -55
-18 -65 -28 -30 -39 -74 -58 -217 -23 -180 -23 -228 1 -413 16 -120 25 -163
45 -198 14 -25 27 -53 28 -62 10 -50 29 -102 38 -102 6 0 23 -28 39 -63 15
-34 37 -71 49 -81 12 -11 21 -25 21 -31 0 -7 19 -33 43 -58 23 -25 60 -66 82
-91 22 -26 49 -54 59 -64 11 -9 37 -33 58 -52 75 -68 88 -79 109 -91 12 -6 41
-26 65 -44 24 -19 54 -37 66 -41 13 -4 38 -20 56 -35 18 -16 42 -29 53 -29 11
0 39 -13 62 -29 23 -15 59 -31 79 -35 20 -4 56 -17 80 -31 24 -13 72 -28 106
-34 35 -6 69 -14 75 -19 24 -18 125 -41 226 -52 58 -6 141 -18 185 -26 132
-23 353 -14 526 21 14 3 50 8 80 10 106 10 128 15 181 40 30 14 68 25 85 25
41 0 94 18 119 41 11 10 43 23 70 29 28 6 66 22 85 35 19 13 47 27 62 30 15 4
38 18 51 31 13 13 42 30 64 38 22 8 52 25 66 38 39 35 94 78 100 78 19 0 270
247 263 258 -3 5 7 20 23 34 15 14 36 46 47 71 13 31 28 50 50 60 26 13 31 20
26 42 -3 19 4 38 27 70 17 23 37 69 45 102 7 32 23 81 35 108 33 74 41 160 37
370 -4 180 -9 218 -41 290 -29 66 -34 82 -40 120 -4 22 -17 54 -29 70 -13 17
-26 41 -29 55 -4 14 -17 40 -29 59 -13 19 -32 49 -43 67 -19 31 -42 61 -110
143 -16 20 -34 42 -40 49 -14 19 -37 41 -82 82 -75 67 -108 93 -133 104 -28
12 -51 37 -44 48 5 7 -36 23 -50 19 -5 -1 -25 11 -45 26 -20 16 -55 37 -78 48
-24 11 -43 23 -43 27 0 3 -23 14 -51 23 -29 10 -67 28 -85 40 -18 12 -50 25
-72 29 -21 3 -63 17 -93 30 -30 14 -99 32 -156 40 -57 9 -115 22 -130 29 -16
8 -53 18 -83 22 -74 10 -401 13 -520 4z m357 -654 c28 -8 90 -22 139 -30 49
-9 96 -22 105 -30 8 -9 38 -22 65 -31 27 -10 67 -30 88 -45 22 -16 47 -29 56
-29 18 0 60 -35 153 -126 94 -93 112 -116 136 -169 12 -28 31 -59 42 -71 11
-12 24 -46 29 -81 6 -32 17 -81 25 -109 8 -27 15 -67 15 -90 0 -82 -60 -324
-80 -324 -4 0 -13 -14 -20 -31 -7 -17 -44 -67 -82 -110 -37 -44 -68 -84 -68
-89 0 -5 -9 -12 -20 -15 -11 -4 -32 -17 -45 -31 -13 -13 -28 -24 -32 -24 -5 0
-25 -14 -45 -30 -20 -17 -54 -38 -75 -48 -21 -9 -49 -25 -63 -34 -14 -8 -50
-21 -80 -28 -30 -7 -72 -22 -94 -32 -100 -51 -554 -50 -652 1 -22 11 -61 25
-87 30 -27 5 -58 17 -70 28 -23 20 -58 38 -94 48 -13 3 -29 12 -35 18 -7 7
-31 24 -53 40 -86 58 -126 94 -152 132 -15 22 -32 45 -38 50 -6 6 -23 28 -38
50 -15 22 -34 49 -42 61 -8 11 -22 47 -30 79 -9 32 -19 64 -24 69 -22 31 -36
108 -34 196 1 80 6 106 31 165 17 39 33 87 37 107 4 20 16 45 27 55 11 10 28
34 38 53 10 19 29 45 42 57 12 11 41 40 63 63 41 43 177 150 190 150 5 0 22
11 39 24 17 13 47 27 66 31 19 4 51 17 70 29 19 11 85 31 145 44 61 13 126 27
145 32 62 14 252 11 307 -5z"/>
<path d="M30430 6750 l0 -2810 765 0 765 0 5 23 c3 12 4 1275 3 2807 l-3 2785
-767 3 -768 2 0 -2810z"/>
<path d="M11550 6229 c-36 -4 -76 -11 -90 -14 -14 -3 -63 -10 -110 -16 -136
-16 -192 -28 -236 -49 -23 -11 -70 -25 -105 -31 -36 -6 -79 -20 -99 -33 -19
-13 -52 -27 -74 -31 -21 -3 -55 -17 -75 -30 -20 -14 -52 -30 -71 -36 -19 -7
-48 -23 -63 -36 -16 -12 -35 -23 -42 -23 -7 0 -34 -16 -59 -35 -26 -19 -50
-35 -54 -35 -4 0 -19 -10 -34 -23 -14 -12 -46 -38 -70 -57 -57 -46 -228 -216
-228 -227 0 -4 -11 -20 -24 -34 -13 -14 -33 -44 -44 -65 -11 -21 -32 -50 -46
-63 -14 -14 -26 -35 -26 -48 0 -22 -17 -62 -32 -73 -15 -11 -48 -96 -48 -124
0 -16 -11 -53 -25 -82 -32 -67 -46 -174 -44 -324 2 -162 14 -247 42 -310 13
-30 28 -75 32 -100 8 -48 26 -90 56 -129 11 -13 19 -33 19 -45 0 -12 18 -43
40 -70 22 -26 40 -56 40 -66 0 -10 3 -20 8 -22 4 -1 27 -28 52 -58 25 -30 53
-61 62 -68 10 -7 18 -19 18 -25 0 -7 12 -21 27 -32 15 -11 43 -37 62 -57 19
-21 38 -38 42 -38 5 0 25 -16 45 -35 19 -19 41 -35 48 -35 7 0 21 -9 32 -21
10 -12 37 -30 59 -41 22 -12 53 -31 68 -44 16 -13 36 -24 45 -24 9 0 42 -16
72 -35 30 -19 64 -35 76 -35 12 0 32 -8 45 -18 29 -22 71 -38 120 -46 19 -4
52 -15 73 -26 37 -19 81 -30 196 -49 30 -5 89 -17 130 -28 64 -15 115 -18 340
-17 245 0 270 2 334 22 39 13 108 27 155 32 58 6 110 19 159 40 41 17 79 29
85 27 14 -4 76 19 97 38 8 7 40 20 70 28 30 9 70 28 89 42 19 14 41 25 49 25
8 0 31 13 51 29 20 15 51 36 68 45 60 30 127 80 217 161 93 85 136 127 136
137 0 6 18 30 40 54 21 23 42 54 45 67 4 14 21 33 41 43 19 10 34 23 35 29 2
39 9 69 17 74 15 10 52 75 52 92 0 8 15 46 34 83 27 53 36 86 41 145 3 42 10
94 15 116 19 80 17 208 -5 365 -23 162 -36 207 -61 227 -10 7 -18 35 -21 72
-4 42 -10 61 -19 61 -24 0 -54 39 -54 69 0 20 -14 46 -45 82 -25 29 -45 57
-45 62 0 19 -134 164 -214 232 -26 22 -59 51 -74 64 -15 13 -40 28 -55 33 -15
6 -34 23 -43 39 -10 21 -22 29 -41 29 -26 0 -93 38 -93 53 0 4 -8 7 -17 7 -10
0 -37 13 -61 29 -23 16 -65 35 -92 42 -28 7 -50 16 -50 20 0 9 -75 39 -99 39
-10 0 -52 13 -92 30 -45 18 -107 33 -159 39 -47 5 -139 18 -205 30 -126 22
-309 26 -435 10z m385 -669 c63 -7 112 -18 133 -30 18 -11 58 -27 90 -36 31
-9 64 -24 72 -33 8 -10 36 -25 63 -35 26 -10 47 -21 47 -26 0 -5 17 -19 37
-31 53 -33 195 -177 223 -227 13 -23 27 -42 32 -42 4 0 17 -33 29 -72 12 -40
32 -89 43 -108 18 -31 20 -52 20 -170 0 -132 -1 -136 -32 -195 -18 -33 -32
-68 -32 -78 0 -23 -18 -58 -40 -77 -9 -8 -20 -25 -24 -38 -7 -22 -192 -212
-206 -212 -5 0 -27 -16 -50 -35 -23 -19 -52 -35 -65 -35 -12 0 -39 -13 -59
-29 -20 -16 -56 -33 -79 -36 -23 -4 -63 -18 -90 -31 -69 -36 -297 -52 -521
-37 -146 9 -169 13 -208 35 -24 14 -59 28 -79 32 -21 4 -48 15 -62 26 -14 11
-30 20 -36 20 -6 0 -11 4 -11 9 0 5 -13 12 -28 16 -34 7 -177 119 -218 170
-16 19 -43 52 -59 73 -17 20 -37 51 -44 67 -7 17 -24 46 -37 66 -31 46 -64
196 -64 292 0 77 25 214 47 261 38 80 93 163 148 220 17 17 42 47 57 67 17 23
40 40 66 47 29 9 42 19 46 36 4 18 18 29 55 41 28 9 61 25 75 36 14 11 49 27
78 35 29 9 69 25 88 35 77 42 359 56 595 29z"/>
<path d="M2005 6120 c-77 -5 -134 -16 -190 -34 -44 -15 -100 -29 -125 -32 -25
-2 -65 -14 -90 -26 -63 -29 -81 -36 -115 -43 -16 -3 -47 -17 -67 -30 -20 -13
-49 -27 -65 -31 -15 -4 -41 -17 -58 -29 -16 -13 -48 -32 -70 -43 -22 -11 -51
-29 -64 -41 -13 -12 -29 -21 -35 -21 -6 0 -23 -10 -38 -23 -15 -12 -55 -44
-88 -72 -58 -47 -100 -88 -185 -178 -19 -21 -35 -41 -35 -45 0 -4 -14 -23 -32
-42 -17 -19 -40 -54 -50 -78 -11 -24 -26 -46 -34 -49 -8 -3 -24 -37 -36 -77
-22 -73 -31 -88 -60 -99 -13 -4 -17 -18 -16 -56 0 -45 -23 -129 -43 -156 -16
-22 -32 -213 -27 -334 5 -102 11 -141 33 -206 15 -44 27 -88 27 -97 0 -10 3
-18 7 -18 4 0 8 -6 8 -14 0 -39 28 -107 50 -121 13 -9 21 -20 17 -26 -8 -13
23 -78 52 -108 13 -13 24 -32 24 -41 0 -10 13 -29 29 -42 16 -14 34 -35 41
-49 13 -24 84 -112 108 -133 7 -6 41 -37 75 -69 34 -32 74 -65 89 -73 15 -8
38 -24 50 -35 30 -28 160 -109 174 -109 6 0 21 -9 34 -20 13 -11 35 -23 49
-26 14 -4 47 -19 72 -35 25 -16 54 -29 64 -29 9 0 52 -15 94 -34 42 -19 103
-38 136 -41 33 -4 77 -16 97 -26 21 -11 70 -23 110 -29 94 -13 430 -29 488
-24 25 3 113 8 195 13 127 8 164 14 242 40 51 17 108 31 126 31 19 0 58 13 88
29 30 15 72 31 93 35 22 4 55 18 75 32 20 13 44 24 54 24 19 0 91 42 102 60 3
5 16 10 28 10 12 0 36 12 52 26 17 14 49 37 73 51 23 14 42 28 42 32 0 4 15
15 33 26 34 20 107 86 190 174 29 30 61 65 73 77 12 12 32 39 45 61 12 21 29
41 36 46 6 4 24 34 39 67 15 33 30 60 34 60 10 0 40 68 40 92 0 11 13 42 30
69 20 34 32 70 39 121 5 40 16 102 23 138 16 83 16 278 0 350 -7 30 -15 73
-18 95 -9 81 -14 101 -28 137 -9 20 -20 39 -25 42 -5 3 -14 28 -21 55 -6 27
-23 64 -37 83 -14 18 -33 51 -43 73 -10 22 -30 52 -43 66 -14 15 -24 29 -21
31 2 3 -23 33 -56 67 -33 34 -67 75 -76 91 -10 15 -28 33 -41 39 -13 6 -45 30
-71 54 -26 24 -62 52 -79 63 -18 10 -33 22 -33 26 0 4 -15 15 -32 24 -18 9
-48 30 -66 45 -18 16 -42 29 -53 29 -11 0 -36 12 -54 26 -19 14 -55 32 -80 40
-25 7 -59 22 -74 33 -15 11 -50 25 -77 31 -27 6 -71 22 -97 36 -27 14 -73 27
-105 30 -60 6 -90 13 -159 38 -83 31 -486 44 -768 26z m605 -662 c36 -14 86
-28 112 -32 26 -4 58 -16 72 -27 13 -11 44 -26 66 -34 65 -23 125 -63 236
-156 37 -31 124 -132 124 -144 0 -6 14 -24 30 -38 23 -21 30 -36 30 -65 0 -31
7 -44 34 -68 34 -30 34 -30 41 -148 8 -133 -4 -241 -34 -291 -11 -16 -25 -50
-32 -75 -7 -25 -25 -59 -40 -77 -15 -17 -32 -47 -39 -67 -8 -24 -19 -38 -35
-42 -25 -6 -55 -43 -55 -68 0 -18 -30 -36 -58 -36 -12 0 -24 -11 -32 -30 -9
-22 -24 -33 -60 -45 -27 -9 -53 -22 -60 -29 -6 -8 -34 -24 -63 -36 -29 -13
-63 -31 -76 -41 -16 -13 -40 -19 -72 -19 -32 0 -67 -9 -102 -25 -105 -51 -357
-56 -512 -9 -44 13 -104 26 -132 30 -29 4 -53 10 -53 13 0 12 -76 51 -98 51
-11 0 -33 11 -49 24 -15 13 -46 32 -68 44 -36 18 -158 131 -241 223 -17 18
-37 52 -44 74 -7 22 -21 49 -31 60 -18 21 -29 61 -48 176 -15 89 -14 122 5
242 12 74 24 111 41 135 13 18 31 52 39 77 9 24 26 50 38 59 13 8 29 27 35 43
14 32 166 169 211 191 17 8 30 18 30 22 0 4 19 15 43 24 23 10 49 22 57 27 51
30 120 59 141 59 13 1 42 8 64 16 106 41 126 44 325 40 180 -3 200 -5 260 -28z"/>
<path d="M6875 3930 c-27 -4 -88 -14 -135 -23 -47 -9 -119 -20 -160 -26 -41
-5 -96 -19 -122 -31 -26 -11 -73 -25 -104 -31 -32 -6 -74 -22 -93 -35 -20 -13
-43 -24 -52 -24 -24 0 -84 -27 -98 -44 -7 -8 -27 -18 -44 -21 -18 -4 -48 -20
-68 -35 -20 -16 -52 -35 -71 -43 -19 -8 -46 -26 -61 -41 -14 -14 -31 -26 -38
-26 -6 0 -23 -11 -38 -25 -65 -62 -104 -95 -110 -95 -13 0 -164 -169 -177
-197 -6 -15 -21 -33 -32 -40 -19 -11 -52 -65 -52 -85 0 -6 -16 -28 -35 -51
-22 -25 -35 -51 -35 -68 0 -15 -7 -35 -15 -43 -25 -24 -55 -100 -61 -153 -3
-26 -18 -84 -32 -128 -24 -72 -27 -94 -26 -225 0 -129 3 -154 27 -225 15 -44
29 -101 32 -128 7 -56 29 -123 48 -141 7 -7 19 -33 27 -57 8 -24 31 -68 52
-98 21 -30 38 -60 38 -67 0 -7 8 -19 18 -26 11 -7 30 -31 44 -53 52 -82 333
-336 408 -369 14 -6 32 -18 40 -26 8 -9 34 -24 56 -33 23 -8 58 -27 79 -41 21
-14 45 -26 54 -26 9 0 39 -14 66 -30 28 -16 63 -30 78 -30 16 0 57 -13 92 -29
36 -17 97 -34 139 -40 42 -6 103 -20 136 -31 81 -27 238 -36 515 -29 200 5
238 9 295 28 36 12 102 26 148 31 58 6 96 16 125 33 23 14 62 28 87 32 25 4
68 19 95 34 28 16 62 31 76 34 14 4 51 21 81 39 31 18 71 42 89 53 19 11 54
31 79 45 25 14 45 28 45 33 0 4 15 16 33 27 18 11 43 29 55 40 12 11 36 32 53
47 95 86 221 213 209 213 -3 0 -1 6 5 13 39 47 74 97 85 124 7 17 22 40 33 51
11 11 27 45 36 75 9 31 21 59 27 62 16 11 30 52 50 150 9 50 25 115 33 145 27
93 17 367 -15 406 -5 6 -13 44 -19 85 -10 83 -25 132 -51 169 -9 14 -24 48
-33 76 -9 29 -26 60 -36 69 -11 10 -20 24 -20 31 0 7 -18 34 -40 59 -35 41
-45 61 -41 87 0 4 -15 12 -34 18 -19 6 -36 16 -36 21 -3 20 -5 25 -23 52 -10
15 -24 27 -30 27 -7 0 -19 11 -26 25 -7 14 -17 25 -22 25 -4 0 -23 15 -42 33
-19 17 -58 50 -86 72 -28 22 -62 50 -75 61 -13 12 -26 19 -29 16 -3 -3 -6 0
-6 6 0 6 -13 13 -28 17 -15 3 -50 21 -77 40 -27 19 -54 35 -61 35 -7 0 -30 11
-50 25 -20 13 -52 27 -73 31 -20 4 -47 14 -61 24 -33 22 -76 38 -122 44 -20 3
-61 17 -90 30 -52 24 -79 29 -211 41 -32 3 -63 7 -68 10 -44 28 -389 44 -524
25z m345 -670 c97 -7 147 -15 175 -29 22 -10 66 -26 98 -34 33 -9 75 -27 95
-40 21 -13 52 -30 70 -37 18 -7 36 -18 40 -24 4 -6 25 -23 47 -37 57 -37 169
-147 198 -194 13 -22 31 -46 40 -53 9 -8 21 -30 28 -50 7 -20 23 -54 37 -74
30 -46 44 -153 37 -293 -7 -135 -11 -156 -40 -195 -13 -18 -32 -55 -41 -82 -8
-26 -20 -48 -25 -48 -5 0 -20 -18 -34 -39 -26 -41 -161 -181 -175 -181 -5 0
-27 -16 -50 -35 -23 -19 -47 -35 -53 -35 -5 0 -25 -12 -44 -26 -18 -14 -57
-32 -86 -41 -28 -8 -65 -23 -82 -33 -16 -10 -50 -21 -75 -25 -25 -3 -91 -15
-148 -26 -112 -21 -228 -25 -282 -9 -19 5 -81 17 -138 25 -69 10 -119 24 -146
39 -22 13 -57 27 -76 30 -19 3 -57 22 -84 41 -27 19 -55 35 -61 35 -7 0 -20 9
-29 19 -10 11 -31 25 -47 31 -16 7 -43 31 -59 54 -17 22 -45 48 -62 56 -19 9
-36 27 -42 47 -6 17 -23 43 -38 58 -15 15 -32 43 -39 63 -6 19 -24 55 -39 78
-24 39 -27 55 -33 173 -9 186 3 272 47 346 20 32 36 65 36 73 0 33 198 240
261 273 20 10 39 24 42 32 3 7 27 22 53 32 27 10 57 26 67 36 10 9 39 22 65
29 26 6 74 23 108 36 41 17 93 28 160 33 143 12 174 12 324 1z"/>
</g>
</svg>
