<?xml version="1.0" encoding="UTF-8" standalone="no"?><!-- Generator: Gravit.io --><svg xmlns="http://www.w3.org/2000/svg" xmlns:xlink="http://www.w3.org/1999/xlink" style="isolation:isolate" viewBox="0 0 491.188 163.641" width="491.188pt" height="163.641pt"><defs><clipPath id="_clipPath_ToHLbCS6eX7ZGwNuinOVb573qSigR8rU"><rect width="491.188" height="163.641"/></clipPath></defs><g clip-path="url(#_clipPath_ToHLbCS6eX7ZGwNuinOVb573qSigR8rU)"><rect width="491.188" height="163.641" style="fill:rgb(0,0,0)" fill-opacity="0"/><path d=" M 64.391 20.719 C 64.391 9.284 76.027 0 90.359 0 C 104.692 0 116.328 9.284 116.328 20.719 C 116.328 32.154 104.692 41.438 90.359 41.438 C 76.027 41.438 64.391 32.154 64.391 20.719 Z  M 75.358 20.719 C 75.358 14.113 82.08 8.75 90.359 8.75 C 98.639 8.75 105.361 14.113 105.361 20.719 C 105.361 27.324 98.639 32.688 90.359 32.688 C 82.08 32.688 75.358 27.324 75.358 20.719 Z " fill-rule="evenodd" fill="rgb(31,98,224)"/><path d=" M 130.672 50.469 C 130.672 39.034 142.308 29.75 156.641 29.75 C 170.973 29.75 182.609 39.034 182.609 50.469 C 182.609 61.904 170.973 71.188 156.641 71.188 C 142.308 71.188 130.672 61.904 130.672 50.469 Z  M 141.639 50.469 C 141.639 43.863 148.361 38.5 156.641 38.5 C 164.92 38.5 171.642 43.863 171.642 50.469 C 171.642 57.074 164.92 62.438 156.641 62.438 C 148.361 62.438 141.639 57.074 141.639 50.469 Z " fill-rule="evenodd" fill="rgb(31,98,224)"/><path d=" M 132.813 110.234 C 132.813 98.799 144.449 89.516 158.781 89.516 C 173.114 89.516 184.75 98.799 184.75 110.234 C 184.75 121.669 173.114 130.953 158.781 130.953 C 144.449 130.953 132.813 121.669 132.813 110.234 Z  M 142.78 110.234 C 142.78 103.629 149.502 98.266 157.781 98.266 C 166.061 98.266 172.783 103.629 172.783 110.234 C 172.783 116.84 166.061 122.203 157.781 122.203 C 149.502 122.203 142.78 116.84 142.78 110.234 Z " fill-rule="evenodd" fill="rgb(31,98,224)"/><path d=" M 68.188 142.922 C 68.188 131.487 79.824 122.203 94.156 122.203 C 108.489 122.203 120.125 131.487 120.125 142.922 C 120.125 154.357 108.489 163.641 94.156 163.641 C 79.824 163.641 68.188 154.357 68.188 142.922 Z  M 78.155 142.922 C 78.155 136.316 84.877 130.953 93.156 130.953 C 101.436 130.953 108.158 136.316 108.158 142.922 C 108.158 149.528 101.436 154.891 93.156 154.891 C 84.877 154.891 78.155 149.528 78.155 142.922 Z " fill-rule="evenodd" fill="rgb(31,98,224)"/><path d=" M 1.75 111.641 C 1.75 100.206 13.386 90.922 27.719 90.922 C 42.051 90.922 53.688 100.206 53.688 111.641 C 53.688 123.076 42.051 132.359 27.719 132.359 C 13.386 132.359 1.75 123.076 1.75 111.641 Z  M 11.717 111.641 C 11.717 105.035 18.439 99.672 26.719 99.672 C 34.998 99.672 41.72 105.035 41.72 111.641 C 41.72 118.246 34.998 123.609 26.719 123.609 C 18.439 123.609 11.717 118.246 11.717 111.641 Z " fill-rule="evenodd" fill="rgb(31,98,224)"/><path d=" M 0 53.406 C 0 41.971 11.636 32.688 25.969 32.688 C 40.301 32.688 51.938 41.971 51.938 53.406 C 51.938 64.841 40.301 74.125 25.969 74.125 C 11.636 74.125 0 64.841 0 53.406 Z  M 9.967 53.406 C 9.967 46.801 16.689 41.438 24.969 41.438 C 33.248 41.438 39.97 46.801 39.97 53.406 C 39.97 60.012 33.248 65.375 24.969 65.375 C 16.689 65.375 9.967 60.012 9.967 53.406 Z " fill-rule="evenodd" fill="rgb(31,98,224)"/><path d=" M 69.038 59.039 C 69.663 55.77 73.815 53.812 78.304 54.67 C 82.793 55.528 85.931 58.879 85.306 62.148 C 84.681 65.418 80.529 67.376 76.04 66.518 C 71.55 65.66 68.413 62.309 69.038 59.039 Z " fill="rgb(75,141,255)"/><path d=" M 94.236 59.039 C 94.86 55.77 99.012 53.812 103.502 54.67 C 107.991 55.528 111.128 58.879 110.504 62.148 C 109.879 65.418 105.727 67.376 101.237 66.518 C 96.748 65.66 93.611 62.309 94.236 59.039 Z " fill="rgb(75,141,255)"/><path d=" M 108.694 77.945 C 109.319 74.676 113.471 72.718 117.96 73.576 C 122.45 74.434 125.587 77.785 124.962 81.055 C 124.337 84.324 120.185 86.282 115.696 85.424 C 111.207 84.566 108.069 81.215 108.694 77.945 Z " fill="rgb(75,141,255)"/><path d=" M 98.236 96.711 C 98.86 93.442 103.012 91.484 107.502 92.342 C 111.991 93.2 115.128 96.551 114.504 99.82 C 113.879 103.09 109.727 105.048 105.237 104.19 C 100.748 103.332 97.611 99.981 98.236 96.711 Z " fill="rgb(75,141,255)"/><path d=" M 72.611 95.493 C 73.235 92.224 77.387 90.266 81.877 91.124 C 86.366 91.982 89.503 95.333 88.879 98.602 C 88.254 101.872 84.102 103.83 79.612 102.972 C 75.123 102.114 71.986 98.763 72.611 95.493 Z " fill="rgb(75,141,255)"/><path d=" M 58.111 77.368 C 58.735 74.099 62.887 72.141 67.377 72.999 C 71.866 73.857 75.003 77.208 74.379 80.477 C 73.754 83.747 69.602 85.705 65.112 84.847 C 60.623 83.989 57.486 80.638 58.111 77.368 Z " fill="rgb(75,141,255)"/><path d=" M 221.328 102.563 L 239.82 85.828 L 255.57 85.828 L 255.57 102.563 L 221.328 102.563 Z " fill="rgb(1,65,188)" vector-effect="non-scaling-stroke" stroke-width="1" stroke="rgb(3,61,185)" stroke-linejoin="miter" stroke-linecap="square" stroke-miterlimit="3"/><path d=" M 267.594 59.672 L 287.984 40.266 L 287.984 85.828 L 298.672 85.828 L 298.672 102.563 L 287.984 102.563 L 287.984 120.984 L 267.594 120.984 L 267.594 59.672 Z " fill="rgb(1,65,188)" vector-effect="non-scaling-stroke" stroke-width="1" stroke="rgb(3,61,185)" stroke-linejoin="miter" stroke-linecap="square" stroke-miterlimit="3"/><path d=" M 313.953 75.75 L 334.578 90.922 L 334.578 120.984 L 313.953 120.984 L 313.953 75.75 Z " fill="rgb(1,65,188)"/><path d=" M 313.953 62.438 L 313.953 40.266 L 358.578 71.188 L 402.641 40.266 L 402.641 120.984 L 382.391 120.984 L 382.391 75.75 L 358.578 93.938 L 313.953 62.438 Z " fill="rgb(1,65,188)"/><path d=" M 420.078 40.266 L 441.641 40.266 L 441.641 120.984 L 420.078 120.984 L 420.078 40.266 Z " fill="rgb(1,65,188)"/><path d=" M 467.828 57.5 L 452.586 57.5 L 452.586 40.266 L 468.688 40.266 C 481.296 41.339 491.188 51.247 491.188 63.296 C 491.188 75.344 481.296 85.253 468.688 86.326 L 468.688 86.326 L 452.586 86.422 L 452.586 69.419 L 467.828 69.419 L 467.828 69.419 C 469.648 68.008 470.807 65.719 470.807 63.344 C 470.807 60.968 469.648 58.911 467.828 57.5 L 467.828 57.5 Z " fill="rgb(1,65,188)"/></g></svg>