<svg width="12" height="17" viewBox="0 0 12 17" fill="none" xmlns="http://www.w3.org/2000/svg">
<path fill-rule="evenodd" clip-rule="evenodd" d="M0.09375 5.97656C0.09375 2.68109 2.74329 0 6 0C9.25671 0 11.9062 2.68109 11.9062 5.97656C11.9062 7.05696 11.6182 8.11577 11.0732 9.03856L6.50426 16.7579C6.4161 16.9069 6.25755 16.9986 6.0859 17H6.082C5.91183 17 5.75361 16.911 5.6638 16.7646L0.975389 9.11931C0.398545 8.1766 0.09375 7.09 0.09375 5.97656ZM6 2.98828C4.37165 2.98828 3.04688 4.32882 3.04688 5.97656C3.04688 7.61378 4.35009 8.96484 6 8.96484C7.67025 8.96484 8.95312 7.59578 8.95312 5.97656C8.95312 4.32882 7.62835 2.98828 6 2.98828Z" fill="#0047BB"/>
</svg>
