<svg width="80" height="42" viewBox="0 0 80 42" fill="none" xmlns="http://www.w3.org/2000/svg">
<path d="M78.6038 41.2437C78.6338 41.2377 78.6632 41.2296 78.6928 41.222C78.718 41.2155 78.7435 41.2102 78.7682 41.2025C78.7971 41.1938 78.8254 41.1829 78.8536 41.1727C78.8786 41.1637 78.9038 41.1556 78.9285 41.1452C78.9551 41.1341 78.9808 41.1211 79.0067 41.1089C79.0319 41.0968 79.0576 41.0857 79.0824 41.0723C79.1071 41.0591 79.1305 41.0441 79.1545 41.0297C79.1793 41.0149 79.2043 41.0011 79.2283 40.9849C79.254 40.9677 79.2778 40.9488 79.3026 40.9303C79.3234 40.9148 79.3447 40.9002 79.3651 40.8835C79.4025 40.8528 79.4381 40.8199 79.4728 40.7862C79.4791 40.7801 79.4858 40.7751 79.4921 40.7688C79.4985 40.7623 79.5041 40.7552 79.5103 40.7484C79.5436 40.7142 79.576 40.6791 79.6066 40.642C79.6244 40.6203 79.6399 40.5976 79.6565 40.5752C79.6736 40.5521 79.6917 40.5296 79.7076 40.5056C79.7248 40.4799 79.7398 40.4533 79.7555 40.4269C79.7687 40.4047 79.7828 40.383 79.7951 40.3601C79.8094 40.3335 79.8215 40.3059 79.8342 40.2789C79.8455 40.2548 79.8575 40.231 79.868 40.2062C79.8791 40.1796 79.8878 40.1526 79.8976 40.1255C79.907 40.0991 79.9172 40.073 79.9253 40.0462C79.9336 40.0189 79.9397 39.9911 79.9466 39.9633C79.9533 39.936 79.9612 39.9092 79.9665 39.8817C79.973 39.8491 79.9769 39.8162 79.9815 39.7834C79.9848 39.7602 79.9892 39.7373 79.9915 39.714C79.9973 39.6564 80.0003 39.5988 80.0003 39.5409V2.45771C80.0003 1.49934 79.2237 0.722778 78.2653 0.722778H23.6148C23.5996 0.722778 23.5848 0.724628 23.5695 0.72509C23.5364 0.726016 23.5036 0.727404 23.4707 0.73018C23.4446 0.732262 23.4187 0.73527 23.3928 0.73874C23.3632 0.742441 23.3338 0.746836 23.3044 0.752156C23.2769 0.757014 23.2496 0.762797 23.2225 0.769043C23.195 0.77552 23.1675 0.78246 23.1402 0.790325C23.1131 0.797959 23.0865 0.806285 23.0601 0.815076C23.0331 0.824329 23.006 0.834046 22.9794 0.844687C22.9542 0.854634 22.9294 0.864811 22.9049 0.875914C22.8776 0.888174 22.8505 0.901361 22.8237 0.91501C22.8008 0.926807 22.7784 0.938835 22.7562 0.951558C22.7293 0.966826 22.703 0.983018 22.6768 0.999674C22.6553 1.01355 22.6343 1.02789 22.6134 1.04247C22.5889 1.05982 22.5646 1.07786 22.5408 1.09683C22.5191 1.11418 22.4978 1.13199 22.4767 1.15027C22.4559 1.16854 22.4353 1.18682 22.4152 1.20625C22.3923 1.22822 22.3703 1.25112 22.3486 1.27426C22.3377 1.28582 22.3261 1.296 22.3157 1.3078C22.3095 1.31474 22.3046 1.32237 22.2986 1.32931C22.2769 1.35453 22.2565 1.3809 22.2361 1.4075C22.2213 1.42693 22.2061 1.44636 22.1922 1.46626C22.1741 1.49216 22.1575 1.51877 22.1408 1.5456C22.1272 1.56758 22.1131 1.58932 22.1006 1.61176C22.086 1.63767 22.0733 1.66427 22.0601 1.69087C22.0481 1.71516 22.0356 1.73945 22.0247 1.7642C22.0134 1.79034 22.0034 1.81741 21.9935 1.84401C21.9835 1.87015 21.9734 1.89606 21.9648 1.92243C21.9562 1.94903 21.9493 1.9761 21.9419 2.00316C21.9345 2.03092 21.9266 2.05845 21.9204 2.08644C21.9146 2.11258 21.9107 2.13918 21.906 2.16555C21.901 2.19562 21.8959 2.2257 21.8922 2.25577C21.8892 2.28075 21.8878 2.3062 21.8859 2.33164C21.8836 2.36403 21.8815 2.39641 21.8811 2.42903C21.8808 2.43851 21.8797 2.44777 21.8797 2.45725V13.1565C21.8797 14.1149 22.6562 14.8914 23.6146 14.8914C24.573 14.8914 25.3495 14.1149 25.3495 13.1565V6.31043L40.7745 19.9672C40.694 20.0238 40.6165 20.0865 40.5443 20.1585L25.3493 35.3535V23.952C25.3493 22.9936 24.5728 22.217 23.6144 22.217C22.656 22.217 21.8794 22.9936 21.8794 23.952V26.0718H12.9156C11.9572 26.0718 11.1807 26.8484 11.1807 27.8068C11.1807 28.7651 11.9572 29.5417 12.9156 29.5417H21.8794V39.5421C21.8794 40.5005 22.656 41.277 23.6144 41.277H78.2649C78.322 41.277 78.3791 41.274 78.4361 41.2685C78.4627 41.2659 78.4883 41.2608 78.5145 41.2571C78.5445 41.253 78.5742 41.2495 78.6038 41.2437ZM76.5302 35.3537L61.3349 20.1587C61.3252 20.149 61.3148 20.1409 61.3048 20.1316L72.7283 10.4398C73.4589 9.81986 73.5486 8.72523 72.9287 7.99447C72.3092 7.26418 71.2146 7.17397 70.4833 7.79415L50.9639 24.3547L28.1914 4.19288H76.5302V35.3537ZM42.9982 22.6126C43.122 22.4888 43.2224 22.351 43.3008 22.2043L49.7897 27.9492C50.1177 28.2396 50.5286 28.3853 50.9399 28.3853C51.3391 28.3853 51.7382 28.2481 52.0625 27.9733L58.6754 22.3628C58.7355 22.4507 58.8033 22.5346 58.8812 22.6126L74.0763 37.8076H27.8032L42.9982 22.6126Z" fill="#009CDE"/>
<path d="M1.73494 20.4816H31.0362C31.9945 20.4816 32.7711 19.705 32.7711 18.7467C32.7711 17.7883 31.9945 17.0117 31.0362 17.0117H1.73494C0.776558 17.0117 0 17.7883 0 18.7467C0 19.705 0.776558 20.4816 1.73494 20.4816Z" fill="#009CDE"/>
<path d="M4.77107 10.9207H17.9277C18.886 10.9207 19.6626 10.1442 19.6626 9.1858C19.6626 8.22742 18.886 7.45087 17.9277 7.45087H4.77107C3.81269 7.45087 3.03613 8.22742 3.03613 9.1858C3.03613 10.1442 3.81269 10.9207 4.77107 10.9207Z" fill="#009CDE"/>
<path d="M14.4578 33.3974H1.73494C0.776558 33.3974 0 34.174 0 35.1323C0 36.0907 0.776558 36.8673 1.73494 36.8673H14.4578C15.4162 36.8673 16.1927 36.0907 16.1927 35.1323C16.1927 34.174 15.4162 33.3974 14.4578 33.3974Z" fill="#009CDE"/>
</svg>
